<svg width="92" height="87" viewBox="0 0 92 87" fill="none" xmlns="http://www.w3.org/2000/svg">
<g clip-path="url(#clip0_2152_1761)">
<g filter="url(#filter0_di_2152_1761)">
<path d="M86.6879 31.1028C86.3342 29.8581 85.2055 29 83.9224 29H80.5C80.5 24.2025 76.6311 20.3 71.875 20.3H54.1365C53.3643 20.3 52.6372 19.9941 52.087 19.439L49.7286 17.0601C48.0919 15.4092 45.9215 14.5 43.6135 14.5H40.6965C39.3208 14.5 38.1389 15.4814 37.875 16.842L35.5137 29H30.387L32.5349 17.958C32.7005 17.1068 32.4789 16.2261 31.9341 15.5579C31.3867 14.888 30.5725 14.5003 29.7131 14.5003H11.5C6.74389 14.5003 2.875 18.4028 2.875 23.2003V69.6C2.875 74.3975 6.74389 78.3 11.5 78.3H73.481C75.5866 78.3 77.608 77.5283 79.2899 76.0218C79.9302 75.3861 94.9058 60.11 86.6879 31.1028ZM24.5272 29H15.964C15.0627 29 14.212 29.4277 13.6675 30.1539C13.1255 30.8804 12.9516 31.822 13.1985 32.6972C19.0889 53.4745 11.9014 66.0713 8.72045 70.3462C8.65864 70.1084 8.625 69.8575 8.625 69.6V23.2C8.625 21.6012 9.91358 20.3 11.5 20.3H26.2203L24.5272 29ZM43.0632 20.3H43.6135C44.3857 20.3 45.1128 20.6059 45.6631 21.161L48.0214 23.5399C49.6581 25.1908 51.8285 26.1 54.1365 26.1H71.875C73.4614 26.1 74.75 27.4012 74.75 29H41.3736L43.0632 20.3ZM33.2962 54.2703L31.7886 52.7493C31.5129 52.4711 31.4467 52.0335 31.6365 51.6902C32.4467 50.2245 33.4242 48.8737 34.473 47.582C33.4245 46.2904 32.4467 44.9396 31.6365 43.4739C31.4467 43.1305 31.5129 42.6926 31.7886 42.4145L33.2962 40.8938C33.5719 40.6157 34.0061 40.549 34.3462 40.7404C35.7992 41.5573 37.1387 42.5436 38.4189 43.6015C39.6994 42.5439 41.0386 41.5576 42.4916 40.7404C42.8317 40.549 43.2659 40.6157 43.5416 40.8938L45.0492 42.4145C45.325 42.6926 45.3911 43.1305 45.2013 43.4739C44.3912 44.9396 43.4134 46.2904 42.3649 47.582C43.4134 48.8737 44.3912 50.2245 45.2013 51.6902C45.3911 52.0335 45.325 52.4711 45.0492 52.7493L43.5416 54.2703C43.2659 54.5481 42.8317 54.6148 42.4914 54.4237C41.0383 53.6065 39.6992 52.6202 38.4186 51.5626C37.1381 52.6202 35.7989 53.6065 34.3459 54.4237C34.0055 54.6151 33.5719 54.5484 33.2962 54.2703ZM65.7452 67.0874C56.5352 65.9356 49.5986 65.417 40.0927 67.0637C38.592 67.4882 37.492 65.5635 38.6912 64.5308C44.5038 59.5321 53.1516 58.0157 60.327 60.71C62.2544 61.3248 70.8466 65.6473 65.7452 67.0874ZM73.853 51.6902C74.0427 52.0335 73.9766 52.4711 73.7009 52.7493L72.1933 54.2703C71.9175 54.5481 71.4834 54.6148 71.143 54.4237C69.69 53.6065 68.3508 52.6202 67.0703 51.5626C65.7898 52.6202 64.4506 53.6065 62.9976 54.4237C62.6572 54.6151 62.223 54.5484 61.9473 54.2703L60.4397 52.7493C60.164 52.4711 60.0979 52.0335 60.2876 51.6902C61.0978 50.2245 62.0753 48.8737 63.1241 47.582C62.0756 46.2904 61.0978 44.9396 60.2876 43.4739C60.0979 43.1305 60.164 42.6926 60.4397 42.4145L61.9473 40.8938C62.223 40.6157 62.6572 40.549 62.9973 40.7404C64.4503 41.5573 65.7898 42.5436 67.07 43.6015C68.3505 42.5439 69.6897 41.5576 71.1427 40.7404C71.4828 40.549 71.917 40.6157 72.1927 40.8938L73.7003 42.4145C73.9761 42.6926 74.0422 43.1305 73.8524 43.4739C73.0423 44.9396 72.0645 46.2904 71.016 47.582C72.0645 48.8737 73.0428 50.2245 73.853 51.6902Z" fill="#1E1D1E"/>
</g>
</g>
<defs>
<filter id="filter0_di_2152_1761" x="2.375" y="14.5" width="87.2695" height="64.8" filterUnits="userSpaceOnUse" color-interpolation-filters="sRGB">
<feFlood flood-opacity="0" result="BackgroundImageFix"/>
<feColorMatrix in="SourceAlpha" type="matrix" values="0 0 0 0 0 0 0 0 0 0 0 0 0 0 0 0 0 0 127 0" result="hardAlpha"/>
<feOffset dy="0.5"/>
<feGaussianBlur stdDeviation="0.25"/>
<feComposite in2="hardAlpha" operator="out"/>
<feColorMatrix type="matrix" values="0 0 0 0 0 0 0 0 0 0 0 0 0 0 0 0 0 0 0.25 0"/>
<feBlend mode="normal" in2="BackgroundImageFix" result="effect1_dropShadow_2152_1761"/>
<feBlend mode="normal" in="SourceGraphic" in2="effect1_dropShadow_2152_1761" result="shape"/>
<feColorMatrix in="SourceAlpha" type="matrix" values="0 0 0 0 0 0 0 0 0 0 0 0 0 0 0 0 0 0 127 0" result="hardAlpha"/>
<feOffset dy="0.5"/>
<feGaussianBlur stdDeviation="0.25"/>
<feComposite in2="hardAlpha" operator="arithmetic" k2="-1" k3="1"/>
<feColorMatrix type="matrix" values="0 0 0 0 1 0 0 0 0 1 0 0 0 0 1 0 0 0 0.12 0"/>
<feBlend mode="normal" in2="shape" result="effect2_innerShadow_2152_1761"/>
</filter>
<clipPath id="clip0_2152_1761">
<rect width="92" height="87" fill="white"/>
</clipPath>
</defs>
</svg>
