<svg width="124" height="20" viewBox="0 0 124 20" fill="none" xmlns="http://www.w3.org/2000/svg">
<path d="M43.9951 18C42.3546 18 40.9044 17.6779 39.6444 17.0342C38.3845 16.3757 37.4104 15.4465 36.722 14.2468C36.0335 13.047 35.6892 11.635 35.6892 10.0109C35.6892 8.38678 36.0335 6.97482 36.722 5.77503C37.4104 4.56056 38.3845 3.63147 39.6444 2.98767C40.9044 2.32923 42.3546 2 43.9951 2C45.1085 2 46.0899 2.11707 46.9395 2.35118C47.804 2.57066 48.5949 2.92181 49.3126 3.40467V6.58708C48.6682 6.06032 47.9285 5.6799 47.0935 5.44579C46.2731 5.19705 45.3356 5.07269 44.281 5.07269C43.2994 5.07269 42.413 5.27754 41.6221 5.68722C40.8457 6.08228 40.2305 6.65291 39.7764 7.39914C39.3223 8.14535 39.095 9.01594 39.095 10.0109C39.095 11.0205 39.3002 11.9057 39.7102 12.6666C40.1351 13.4128 40.7284 13.9908 41.4901 14.4005C42.2518 14.8101 43.1308 15.015 44.1269 15.015C45.0352 15.015 45.8261 14.854 46.5 14.5321V11.5692H44.0171V9.11106H49.73V16.5075C48.2799 17.5024 46.3684 18 43.9951 18Z" fill="#1E1D1E"/>
<path d="M50.7329 7.0683H54.1283V8.63972C54.5781 8.10834 55.2059 7.70597 56.0121 7.43271C56.8183 7.14423 57.7332 7 58.7562 7V9.61903C57.6866 9.61903 56.7408 9.77844 55.9191 10.0973C55.1129 10.4161 54.5547 10.902 54.2446 11.5548V18H50.7329V7.0683Z" fill="#1E1D1E"/>
<path d="M65.3534 18C63.3028 18 61.6905 17.5253 60.5168 16.5762C59.3431 15.6131 58.7562 14.2685 58.7562 12.5431C58.7562 10.832 59.2764 9.48036 60.3162 8.48822C61.3713 7.49605 62.8718 7 64.8184 7C66.096 7 67.1807 7.23007 68.0723 7.69017C68.9636 8.1503 69.6398 8.79016 70.1005 9.60976C70.5611 10.415 70.7912 11.328 70.7912 12.349V13.6646H61.9657C62.2034 14.9875 63.481 15.6491 65.7989 15.6491C66.4824 15.6491 67.1882 15.5915 67.9161 15.4763C68.6443 15.3614 69.276 15.2032 69.8108 15.0019V17.2883C69.2907 17.5037 68.622 17.6764 67.8047 17.8059C66.9877 17.9351 66.1703 18 65.3534 18ZM67.6041 11.5509C67.5598 10.8607 67.2921 10.3287 66.8019 9.95488C66.3118 9.56662 65.6354 9.3725 64.7737 9.3725C63.9268 9.3725 63.2581 9.56662 62.7679 9.95488C62.2777 10.3431 62.0101 10.8751 61.9657 11.5509H67.6041Z" fill="#1E1D1E"/>
<path d="M77.9379 18C75.7169 18 73.9703 17.5253 72.6988 16.5762C71.4273 15.6131 70.7912 14.2685 70.7912 12.5431C70.7912 10.832 71.3547 9.48036 72.4816 8.48822C73.6241 7.49605 75.2499 7 77.3584 7C78.7428 7 79.9178 7.23007 80.8837 7.69017C81.8492 8.1503 82.5815 8.79016 83.0805 9.60976C83.5794 10.415 83.829 11.328 83.829 12.349V13.6646H74.2681C74.5255 14.9875 75.9099 15.6491 78.4208 15.6491C79.1613 15.6491 79.926 15.5915 80.7145 15.4763C81.503 15.3614 82.1872 15.2032 82.7667 15.0019V17.2883C82.2032 17.5037 81.4792 17.6764 80.5937 17.8059C79.7084 17.9351 78.8233 18 77.9379 18ZM80.3765 11.5509C80.3281 10.8607 80.0385 10.3287 79.5075 9.95488C78.976 9.56662 78.2438 9.3725 77.3103 9.3725C76.3928 9.3725 75.6684 9.56662 75.1374 9.95488C74.606 10.3431 74.3165 10.8751 74.2681 11.5509H80.3765Z" fill="#1E1D1E"/>
<path d="M83.829 7.33332H87.2408V8.64442C87.7551 8.09629 88.3625 7.68889 89.0637 7.42222C89.7804 7.14073 90.5281 7 91.3072 7C92.8339 7 93.9712 7.39258 94.7189 8.17775C95.4821 8.94814 95.864 9.99257 95.864 11.3111V18H92.3351V11.6889C92.3351 10.3111 91.6653 9.62221 90.3254 9.62221C89.7335 9.62221 89.1806 9.76294 88.6663 10.0444C88.1523 10.3111 87.7161 10.7111 87.3577 11.2444V18H83.829V7.33332Z" fill="#1E1D1E"/>
<path d="M98.8726 5.62009C98.309 5.62009 97.8338 5.44877 97.447 5.10611C97.0602 4.76348 96.8669 4.33145 96.8669 3.81003C96.8669 3.30353 97.0602 2.87896 97.447 2.53629C97.8338 2.17876 98.309 2 98.8726 2C99.4366 2 99.9118 2.17876 100.299 2.53629C100.685 2.87896 100.879 3.30353 100.879 3.81003C100.879 4.33145 100.685 4.76348 100.299 5.10611C99.9118 5.44877 99.4366 5.62009 98.8726 5.62009ZM97.0359 7.2737H100.71V18H97.0359V7.2737Z" fill="#1E1D1E"/>
<path d="M106.838 18C106.017 18 105.133 17.9135 104.189 17.741C103.26 17.5829 102.529 17.3528 101.995 17.0509V14.5058C102.605 14.8509 103.336 15.1313 104.189 15.347C105.042 15.5625 105.833 15.6704 106.565 15.6704C107.189 15.6704 107.647 15.6201 107.936 15.5196C108.224 15.4188 108.37 15.2319 108.37 14.9587C108.37 14.7431 108.286 14.5705 108.118 14.4411C107.951 14.2973 107.692 14.1751 107.342 14.0744C107.007 13.9594 106.443 13.794 105.651 13.5783C104.722 13.3195 103.991 13.0607 103.458 12.8019C102.94 12.5287 102.544 12.1908 102.27 11.7882C102.011 11.3856 101.882 10.8679 101.882 10.2352C101.882 9.15682 102.33 8.3516 103.23 7.8196C104.144 7.27318 105.377 7 106.931 7C107.692 7 108.476 7.07906 109.283 7.23726C110.106 7.38104 110.738 7.57515 111.18 7.8196V10.3C110.738 10.0267 110.159 9.80387 109.443 9.63133C108.743 9.45879 108.057 9.3725 107.387 9.3725C106.762 9.3725 106.276 9.43003 105.925 9.54508C105.59 9.66009 105.422 9.87578 105.422 10.1921C105.422 10.4653 105.583 10.6738 105.903 10.8176C106.238 10.9614 106.854 11.1411 107.753 11.3568L108.209 11.4646C109.169 11.7091 109.915 11.9823 110.449 12.2843C110.981 12.5718 111.354 12.9241 111.568 13.3411C111.797 13.7437 111.911 14.2542 111.911 14.8725C111.911 15.8215 111.477 16.5835 110.608 17.1588C109.741 17.7194 108.484 18 106.838 18Z" fill="#1E1D1E"/>
<path d="M112.914 1H116.148V8.22326C116.634 7.68648 117.183 7.28776 117.797 7.02704C118.412 6.75098 119.069 6.61297 119.769 6.61297C121.168 6.61297 122.21 7.01937 122.896 7.83216C123.595 8.62965 123.946 9.71083 123.946 11.0757V18H120.711V11.4668C120.711 10.0405 120.097 9.32744 118.869 9.32744C118.326 9.32744 117.819 9.47312 117.348 9.76452C116.877 10.0405 116.476 10.4546 116.148 11.0067V18H112.914V1Z" fill="#1E1D1E"/>
<path fill-rule="evenodd" clip-rule="evenodd" d="M16.6692 4.87775C16.6692 7.57166 14.5575 9.75551 11.9524 9.75551C9.34724 9.75551 7.23538 7.57166 7.23538 4.87775C7.23538 2.18385 9.34724 0 11.9524 0C14.5575 0 16.6692 2.18385 16.6692 4.87775ZM0.980322 9.40102C6.11934 9.04282 10.5982 13.0215 11.0154 18.347C11.0586 18.8989 11.0565 19.4436 11.0124 19.9776C5.87332 20.3358 1.39452 16.357 0.977328 11.0316C0.934126 10.4798 0.936183 9.93493 0.980322 9.40102ZM14.3374 19.7911C19.4873 19.3597 23.3349 14.7283 22.9884 9.41407C22.472 9.36843 21.9453 9.3663 21.4117 9.411C16.2617 9.84239 12.4141 14.4739 12.7605 19.788C13.2768 19.8337 13.8037 19.8359 14.3374 19.7911Z" fill="#1E1D1E"/>
</svg>
