<svg width="141" height="20" viewBox="0 0 141 20" fill="none" xmlns="http://www.w3.org/2000/svg">
<path d="M26.3845 18.4039V0.547502H29.6601L38.0798 13.1236V0.547502H41.3555V18.4039H38.0798L29.6601 5.85344V18.4039H26.3845Z" fill="#1E1D1E"/>
<path d="M49.6396 18.71C48.36 18.71 47.2255 18.4377 46.236 17.8936C45.2465 17.3495 44.4702 16.5842 43.9071 15.5979C43.344 14.6113 43.0626 13.472 43.0626 12.1796C43.0626 10.8701 43.3355 9.70521 43.8816 8.68485C44.4444 7.66449 45.2122 6.87369 46.1848 6.31246C47.1742 5.7343 48.3345 5.44517 49.6652 5.44517C50.9108 5.44517 52.011 5.71728 52.9665 6.2615C53.922 6.80562 54.6641 7.55387 55.1929 8.50625C55.7391 9.44161 56.012 10.4875 56.012 11.6439C56.012 11.8309 56.0035 12.0265 55.9863 12.2306C55.9863 12.4346 55.9778 12.6472 55.9608 12.8684H46.3127C46.3809 13.8547 46.7221 14.6285 47.3365 15.1895C47.9676 15.7509 48.7269 16.0314 49.6141 16.0314C50.2794 16.0314 50.8338 15.8868 51.2775 15.5979C51.7381 15.2917 52.0793 14.9005 52.3012 14.4245H55.6281C55.3892 15.2237 54.9882 15.9549 54.4252 16.6181C53.8793 17.2643 53.1969 17.7745 52.378 18.1487C51.5762 18.5229 50.6634 18.71 49.6396 18.71ZM49.6652 8.09809C48.8634 8.09809 48.1553 8.32765 47.5412 8.78687C46.9268 9.22897 46.5344 9.90924 46.364 10.8276H52.6851C52.6339 9.99424 52.3266 9.33108 51.7638 8.83782C51.2007 8.34466 50.5012 8.09809 49.6652 8.09809Z" fill="#1E1D1E"/>
<path d="M55.4099 18.4037L60.0162 12.0774L55.4099 5.75112H58.9161L62.1404 10.2407L65.3393 5.75112H68.871L64.2389 12.0774L68.871 18.4037H65.3393L62.1404 13.9142L58.9161 18.4037H55.4099Z" fill="#1E1D1E"/>
<path d="M75.3344 18.4039C74.0035 18.4039 72.9372 18.0808 72.1352 17.4346C71.3334 16.7883 70.9325 15.6403 70.9325 13.9908V8.48082H68.7573V5.75132H70.9325L71.3164 2.35864H74.2082V5.75132H77.6375V8.48082H74.2082V14.0162C74.2082 14.6286 74.3361 15.0536 74.592 15.2918C74.865 15.5127 75.3256 15.6233 75.974 15.6233H77.5608V18.4039H75.3344Z" fill="#1E1D1E"/>
<path d="M79.1702 18.4038V5.75122H82.0623L82.3437 7.46036C82.7531 6.84817 83.2906 6.36352 83.956 6.00631C84.6383 5.63219 85.4231 5.44517 86.3104 5.44517C88.2724 5.44517 89.6628 6.20193 90.4819 7.71545C90.9425 7.01826 91.5565 6.46553 92.3244 6.05737C93.1091 5.6492 93.9618 5.44517 94.8838 5.44517C96.5391 5.44517 97.8096 5.93833 98.6964 6.92465C99.5833 7.91107 100.027 9.35651 100.027 11.2612V18.4038H96.752V11.5673C96.752 10.479 96.5391 9.64564 96.1122 9.06749C95.7024 8.48923 95.0626 8.2001 94.1928 8.2001C93.305 8.2001 92.5888 8.52327 92.043 9.1695C91.5141 9.81574 91.2496 10.7171 91.2496 11.8735V18.4038H87.9737V11.5673C87.9737 10.479 87.7605 9.64564 87.3342 9.06749C86.9075 8.48923 86.2506 8.2001 85.3634 8.2001C84.4934 8.2001 83.7853 8.52327 83.2394 9.1695C82.7106 9.81574 82.4462 10.7171 82.4462 11.8735V18.4038H79.1702Z" fill="#1E1D1E"/>
<path d="M107.949 18.71C106.72 18.71 105.612 18.4292 104.622 17.8682C103.649 17.3069 102.873 16.5331 102.293 15.5467C101.73 14.5433 101.448 13.3871 101.448 12.0775C101.448 10.768 101.739 9.62011 102.318 8.63379C102.899 7.63045 103.675 6.84817 104.647 6.28693C105.637 5.72579 106.746 5.44517 107.974 5.44517C109.186 5.44517 110.278 5.72579 111.25 6.28693C112.239 6.84817 113.016 7.63045 113.579 8.63379C114.159 9.62011 114.449 10.768 114.449 12.0775C114.449 13.3871 114.159 14.5433 113.579 15.5467C113.016 16.5331 112.239 17.3069 111.25 17.8682C110.261 18.4292 109.16 18.71 107.949 18.71ZM107.949 15.8784C108.801 15.8784 109.544 15.5638 110.175 14.9344C110.806 14.2884 111.122 13.336 111.122 12.0775C111.122 10.8191 110.806 9.8752 110.175 9.24599C109.544 8.59976 108.811 8.27669 107.974 8.27669C107.104 8.27669 106.354 8.59976 105.722 9.24599C105.108 9.8752 104.801 10.8191 104.801 12.0775C104.801 13.336 105.108 14.2884 105.722 14.9344C106.354 15.5638 107.096 15.8784 107.949 15.8784Z" fill="#1E1D1E"/>
<path d="M118.902 18.4037L114.245 5.75112H117.674L120.899 15.317L124.123 5.75112H127.553L122.87 18.4037H118.902Z" fill="#1E1D1E"/>
<path d="M133.882 18.71C132.602 18.71 131.468 18.4377 130.479 17.8936C129.489 17.3495 128.712 16.5842 128.15 15.5979C127.586 14.6113 127.305 13.472 127.305 12.1796C127.305 10.8701 127.578 9.70521 128.124 8.68485C128.687 7.66449 129.454 6.87369 130.427 6.31246C131.417 5.7343 132.577 5.44517 133.908 5.44517C135.153 5.44517 136.254 5.71728 137.209 6.2615C138.164 6.80562 138.907 7.55387 139.435 8.50625C139.981 9.44161 140.254 10.4875 140.254 11.6439C140.254 11.8309 140.245 12.0265 140.229 12.2306C140.229 12.4346 140.22 12.6472 140.203 12.8684H130.555C130.624 13.8547 130.965 14.6285 131.579 15.1895C132.21 15.7509 132.97 16.0314 133.857 16.0314C134.522 16.0314 135.077 15.8868 135.52 15.5979C135.981 15.2917 136.322 14.9005 136.543 14.4245H139.871C139.632 15.2237 139.231 15.9549 138.668 16.6181C138.122 17.2643 137.439 17.7745 136.621 18.1487C135.818 18.5229 134.906 18.71 133.882 18.71ZM133.908 8.09809C133.105 8.09809 132.397 8.32765 131.784 8.78687C131.17 9.22897 130.777 9.90924 130.606 10.8276H136.928C136.877 9.99424 136.569 9.33108 136.006 8.83782C135.444 8.34466 134.743 8.09809 133.908 8.09809Z" fill="#1E1D1E"/>
<path d="M10.2319 0.200267V8.27248C10.2319 9.19383 9.48251 9.94068 8.55818 9.94068H0.459901V6.60429H4.51326L0.254486 2.35923L2.62132 0L6.88459 4.24952V0.200267H10.2319Z" fill="#1E1D1E"/>
<path d="M20.1181 10.0549H12.0198C11.0954 10.0549 10.3462 10.8018 10.3462 11.7231V19.7954H13.6935V15.7547L17.9525 20L20.3192 17.6408L16.0561 13.3912H20.1181V10.0549Z" fill="#1E1D1E"/>
</svg>
