<svg width="144" height="24" viewBox="0 0 144 24" fill="none" xmlns="http://www.w3.org/2000/svg">
<path d="M36.3392 3.84158C37.7869 3.84158 39.0399 4.08246 40.0982 4.56421C41.1722 5.04591 41.997 5.72961 42.5727 6.61541C43.1488 7.50111 43.4368 8.55011 43.4368 9.76221C43.4368 10.9587 43.1488 12.0076 42.5727 12.909C41.997 13.7947 41.1722 14.4785 40.0982 14.9604C39.0399 15.4263 37.7869 15.6595 36.3392 15.6595H33.0474V20.1584H29.2654V3.84158H36.3392ZM36.1294 12.5826C37.2653 12.5826 38.1294 12.3417 38.7207 11.86C39.3123 11.3627 39.6078 10.6635 39.6078 9.76221C39.6078 8.84531 39.3123 8.14601 38.7207 7.66431C38.1294 7.16701 37.2653 6.91842 36.1294 6.91842H33.0474V12.5826H36.1294Z" fill="#1E1D1E"/>
<path d="M48.1911 9.27261C48.6267 8.66661 49.2106 8.20812 49.942 7.89732C50.689 7.58651 51.5449 7.43121 52.5099 7.43121V10.7877C52.1054 10.7566 51.833 10.7411 51.6928 10.7411C50.65 10.7411 49.833 11.0364 49.2417 11.6269C48.6501 12.2018 48.3542 13.072 48.3542 14.2374V20.1583H44.7124V7.61761H48.1911V9.27261Z" fill="#1E1D1E"/>
<path d="M59.3703 20.3444C58.0477 20.3444 56.8569 20.0728 55.7986 19.5287C54.7558 18.9695 53.9387 18.2 53.3471 17.221C52.7558 16.242 52.46 15.1309 52.46 13.8879C52.46 12.6447 52.7558 11.5336 53.3471 10.5546C53.9387 9.57561 54.7558 8.81421 55.7986 8.27031C56.8569 7.71091 58.0477 7.43121 59.3703 7.43121C60.6934 7.43121 61.8763 7.71091 62.9191 8.27031C63.9619 8.81421 64.779 9.57561 65.3706 10.5546C65.9619 11.5336 66.2577 12.6447 66.2577 13.8879C66.2577 15.1309 65.9619 16.242 65.3706 17.221C64.779 18.2 63.9619 18.9695 62.9191 19.5287C61.8763 20.0728 60.6934 20.3444 59.3703 20.3444ZM59.3703 17.3609C60.3045 17.3609 61.0671 17.0504 61.6584 16.4286C62.2656 15.7916 62.5688 14.9448 62.5688 13.8879C62.5688 12.8312 62.2656 11.992 61.6584 11.3704C61.0671 10.7333 60.3045 10.4148 59.3703 10.4148C58.4365 10.4148 57.6662 10.7333 57.0594 11.3704C56.4521 11.992 56.1485 12.8312 56.1485 13.8879C56.1485 14.9448 56.4521 15.7916 57.0594 16.4286C57.6662 17.0504 58.4365 17.3609 59.3703 17.3609Z" fill="#1E1D1E"/>
<path d="M82.7707 3.84158V20.1584H79.6657L71.5175 10.2517V20.1584H67.7822V3.84158H70.9106L79.0351 13.7481V3.84158H82.7707Z" fill="#1E1D1E"/>
<path d="M90.279 7.43121C92.2241 7.43121 93.7181 7.89732 94.7611 8.82971C95.8041 9.74661 96.3261 11.1374 96.3261 13.0021V20.1583H92.9171V18.5964C92.2321 19.7619 90.9559 20.3444 89.0883 20.3444C88.1234 20.3444 87.2826 20.1816 86.5667 19.8552C85.8665 19.5287 85.3293 19.0783 84.956 18.5031C84.5824 17.9283 84.3955 17.2754 84.3955 16.5452C84.3955 15.3796 84.8315 14.4629 85.703 13.7946C86.5901 13.1265 87.9521 12.7923 89.7886 12.7923H92.6831C92.6831 11.9998 92.4421 11.3938 91.9601 10.9742C91.4771 10.5391 90.7535 10.3215 89.7886 10.3215C89.1195 10.3215 88.4577 10.4303 87.8042 10.6479C87.1662 10.8499 86.6212 11.1296 86.1697 11.487L84.8626 8.94631C85.5473 8.46451 86.3643 8.09161 87.3137 7.82741C88.2787 7.56331 89.2674 7.43121 90.279 7.43121ZM89.9988 17.8972C90.6212 17.8972 91.1739 17.7573 91.6561 17.4775C92.1391 17.1821 92.4811 16.755 92.6831 16.1954V14.9137H90.1856C88.6913 14.9137 87.9443 15.403 87.9443 16.3819C87.9443 16.8483 88.1234 17.221 88.4811 17.5008C88.8548 17.7651 89.3604 17.8972 89.9988 17.8972Z" fill="#1E1D1E"/>
<path d="M106.556 19.5521C106.198 19.8164 105.754 20.0185 105.225 20.1584C104.711 20.2824 104.167 20.3445 103.591 20.3445C102.097 20.3445 100.937 19.9641 100.112 19.2027C99.3031 18.441 98.8981 17.3221 98.8981 15.8461V10.6946H96.9611V7.89741H98.8981V4.84391H102.54V7.89741H105.669V10.6946H102.54V15.7995C102.54 16.3276 102.672 16.7396 102.937 17.0349C103.217 17.3144 103.606 17.4543 104.105 17.4543C104.68 17.4543 105.171 17.2988 105.575 16.9883L106.556 19.5521Z" fill="#1E1D1E"/>
<path d="M120.087 7.61771V20.1583H116.631V18.6664C116.149 19.2101 115.573 19.6298 114.904 19.9252C114.234 20.205 113.511 20.3445 112.733 20.3445C111.083 20.3445 109.776 19.8708 108.81 18.9229C107.845 17.975 107.363 16.5685 107.363 14.7039V7.61771H111.005V14.1675C111.005 16.1877 111.853 17.1977 113.55 17.1977C114.421 17.1977 115.122 16.9183 115.651 16.3587C116.18 15.7839 116.445 14.937 116.445 13.818V7.61771H120.087Z" fill="#1E1D1E"/>
<path d="M125.773 9.27261C126.208 8.66661 126.792 8.20812 127.523 7.89732C128.27 7.58651 129.127 7.43121 130.092 7.43121V10.7877C129.687 10.7566 129.414 10.7411 129.275 10.7411C128.231 10.7411 127.414 11.0364 126.823 11.6269C126.232 12.2018 125.936 13.072 125.936 14.2374V20.1583H122.294V7.61761H125.773V9.27261Z" fill="#1E1D1E"/>
<path d="M143.279 13.9347C143.279 13.9809 143.255 14.3074 143.209 14.9137H133.707C133.878 15.6905 134.282 16.3042 134.921 16.755C135.559 17.2054 136.352 17.4309 137.302 17.4309C137.956 17.4309 138.532 17.3376 139.03 17.151C139.543 16.9493 140.018 16.6384 140.454 16.2187L142.392 18.3165C141.209 19.6686 139.481 20.3444 137.208 20.3444C135.792 20.3444 134.539 20.0728 133.45 19.5287C132.36 18.9695 131.52 18.2 130.928 17.221C130.337 16.242 130.041 15.1309 130.041 13.8879C130.041 12.6602 130.329 11.557 130.905 10.5779C131.497 9.58342 132.298 8.81421 133.31 8.27031C134.337 7.71091 135.481 7.43121 136.742 7.43121C137.971 7.43121 139.084 7.69531 140.08 8.22371C141.076 8.75202 141.855 9.51351 142.415 10.508C142.991 11.487 143.279 12.6292 143.279 13.9347ZM136.765 10.1817C135.94 10.1817 135.247 10.4148 134.687 10.881C134.127 11.3472 133.785 11.9843 133.66 12.7923H139.847C139.722 11.9998 139.38 11.3704 138.82 10.9043C138.259 10.4225 137.574 10.1817 136.765 10.1817Z" fill="#1E1D1E"/>
<path fill-rule="evenodd" clip-rule="evenodd" d="M12.2242 0.535403C11.86 0.322509 11.4109 0.322509 11.0467 0.535403C8.45981 2.04751 6.71501 4.87668 6.71501 8.11902C6.71501 8.58114 6.75048 9.03488 6.81874 9.4776C5.03792 8.8665 3.10972 9.08889 1.53479 10.0059C1.17023 10.2182 0.945688 10.6111 0.946045 11.0362C0.94791 13.2793 2.10102 15.4652 4.16619 16.67C5.17933 17.2611 6.28515 17.5421 7.37594 17.5426C7.20998 18.0178 7.11969 18.5289 7.11969 19.0615C7.11969 21.5815 9.1414 23.6243 11.6352 23.6243C14.1292 23.6243 16.1508 21.5815 16.1508 19.0615C16.1508 18.5277 16.0601 18.0155 15.8936 17.5395C16.9193 17.5066 17.9525 17.2253 18.9038 16.67C20.9691 15.4652 22.122 13.2793 22.1239 11.0364C22.1243 10.6112 21.8998 10.2182 21.5352 10.006C20.0223 9.12509 18.1834 8.88516 16.4625 9.40932C16.5241 8.98825 16.5557 8.55742 16.5557 8.11902C16.5557 4.87668 14.8112 2.04751 12.2242 0.535403ZM9.06652 8.11902C9.06652 6.01354 10.0754 4.14504 11.6354 2.98197C13.1955 4.14504 14.2044 6.01354 14.2044 8.11902C14.2044 10.2245 13.1955 12.093 11.6354 13.2561C10.0754 12.093 9.06652 10.2245 9.06652 8.11902ZM16.2725 12.0648C17.3582 11.4313 18.6129 11.3576 19.7089 11.7584C19.5045 12.9179 18.8139 13.9788 17.7281 14.6123C16.6424 15.2458 15.3877 15.3194 14.2917 14.9188C14.4961 13.7591 15.1867 12.6982 16.2725 12.0648ZM3.36124 11.7583C4.45718 11.3575 5.71177 11.4312 6.79756 12.0646C7.88336 12.6981 8.57381 13.7591 8.77832 14.9185C7.68232 15.3194 6.42773 15.2458 5.34194 14.6123C4.25615 13.9788 3.56567 12.9178 3.36124 11.7583ZM9.47121 19.0615C9.47121 17.8539 10.4401 16.8748 11.6352 16.8748C12.8305 16.8748 13.7994 17.8539 13.7994 19.0615C13.7994 20.2691 12.8305 21.2483 11.6352 21.2483C10.4401 21.2483 9.47121 20.2691 9.47121 19.0615Z" fill="#1E1D1E"/>
</svg>
