<svg width="153" height="24" viewBox="0 0 153 24" fill="none" xmlns="http://www.w3.org/2000/svg">
<path d="M13.2371 8.52263C13.871 8.16416 14.8987 8.16416 15.5326 8.52263L27.831 15.4778C28.4648 15.8363 28.4648 16.4175 27.831 16.776L15.5326 23.7311C14.8987 24.0896 13.871 24.0896 13.2371 23.7311L0.938728 16.776C0.304817 16.4175 0.304822 15.8363 0.938728 15.4778L13.2371 8.52263Z" fill="#1E1D1E"/>
<path d="M13.2226 4.59373C13.8564 4.23522 14.8842 4.23522 15.5181 4.59373L27.8165 11.5488C28.4505 11.9074 28.4505 12.4886 27.8165 12.8471L15.5181 19.8022C14.8842 20.1607 13.8564 20.1607 13.2226 19.8022L0.92419 12.8471C0.290285 12.4886 0.290285 11.9074 0.92419 11.5488L13.2226 4.59373Z" fill="#1E1D1E"/>
<path d="M13.2226 0.268874C13.8564 -0.0896247 14.8842 -0.0896247 15.5181 0.268874L27.8165 7.22402C28.4505 7.5825 28.4505 8.1637 27.8165 8.52223L15.5181 15.4774C14.8842 15.8359 13.8564 15.8359 13.2226 15.4774L0.92419 8.52223C0.290285 8.1637 0.290285 7.5825 0.92419 7.22402L13.2226 0.268874Z" fill="#1E1D1E"/>
<path d="M37.7778 20.7465L30.4538 3H33.6887L39.4079 17.3747H38.2693L44.0405 3H47.2238L39.8479 20.7465H37.7778ZM52.1309 21C51.0093 21 49.9913 20.7211 49.0769 20.1633C48.1799 19.6057 47.4638 18.8535 46.929 17.907C46.4113 16.9437 46.1526 15.8704 46.1526 14.6874C46.1526 13.4873 46.4113 12.4141 46.929 11.4676C47.4638 10.5042 48.1799 9.74362 49.0769 9.18592C49.9913 8.61126 51.0093 8.32396 52.1309 8.32396C53.0798 8.32396 53.9165 8.52676 54.6406 8.93243C55.3827 9.32112 55.9693 9.86199 56.4012 10.555C56.8323 11.2478 57.0479 12.0338 57.0479 12.9127V16.4113C57.0479 17.2902 56.8323 18.076 56.4012 18.769C55.9866 19.462 55.409 20.0113 54.6669 20.4169C53.9248 20.8056 53.0798 21 52.1309 21ZM52.5966 18.3634C53.6491 18.3634 54.4949 18.0169 55.1326 17.324C55.7883 16.631 56.1165 15.7436 56.1165 14.662C56.1165 13.9352 55.9693 13.2929 55.6763 12.7352C55.3827 12.1775 54.9688 11.7464 54.434 11.4422C53.9165 11.1211 53.304 10.9606 52.5966 10.9606C51.9063 10.9606 51.2938 11.1211 50.759 11.4422C50.2417 11.7464 49.8274 12.1775 49.5168 12.7352C49.2236 13.2929 49.0769 13.9352 49.0769 14.662C49.0769 15.3887 49.2236 16.031 49.5168 16.5887C49.8274 17.1465 50.2417 17.5859 50.759 17.907C51.2938 18.2113 51.9063 18.3634 52.5966 18.3634ZM55.9347 20.7465V17.4761L56.4267 14.5099L55.9347 11.569V8.57746H58.7822V20.7465H55.9347ZM70.455 20.7465V13.7239C70.455 12.9127 70.1876 12.2451 69.6528 11.7211C69.1361 11.1972 68.4631 10.9352 67.6346 10.9352C67.0826 10.9352 66.5906 11.0535 66.1595 11.2901C65.7283 11.5267 65.3918 11.8563 65.15 12.2789C64.9089 12.7015 64.788 13.1831 64.788 13.7239L63.6748 13.1155C63.6748 12.1859 63.8821 11.3661 64.296 10.6564C64.7106 9.92959 65.2799 9.36333 66.004 8.95774C66.7461 8.53524 67.5745 8.32396 68.4886 8.32396C69.42 8.32396 70.2485 8.56056 70.9733 9.03382C71.6981 9.49012 72.2674 10.0902 72.6813 10.8338C73.0951 11.5606 73.3025 12.3212 73.3025 13.1155V20.7465H70.455ZM61.9413 20.7465V8.57746H64.788V20.7465H61.9413ZM81.9146 21C80.6895 21 79.5764 20.7211 78.5759 20.1633C77.5927 19.6057 76.8161 18.8451 76.2468 17.8817C75.6774 16.9183 75.3928 15.845 75.3928 14.662C75.3928 13.4619 75.6774 12.3887 76.2468 11.4422C76.8161 10.4789 77.5927 9.7183 78.5759 9.16054C79.5764 8.60284 80.6895 8.32396 81.9146 8.32396C82.8805 8.32396 83.7781 8.50986 84.6058 8.88165C85.4515 9.23662 86.1673 9.7521 86.7539 10.4282L84.8904 12.2789C84.5284 11.8563 84.0883 11.5437 83.5708 11.3408C83.0705 11.1211 82.5185 11.0112 81.9146 11.0112C81.2071 11.0112 80.5776 11.1718 80.0256 11.4929C79.4908 11.7972 79.0672 12.2197 78.757 12.7606C78.464 13.3014 78.3176 13.9352 78.3176 14.662C78.3176 15.3718 78.464 16.0056 78.757 16.5634C79.0672 17.1042 79.4908 17.5352 80.0256 17.8563C80.5776 18.1605 81.2071 18.3127 81.9146 18.3127C82.5185 18.3127 83.0705 18.2113 83.5708 18.0084C84.0883 17.7887 84.5284 17.4676 84.8904 17.0451L86.7539 18.8958C86.1673 19.5719 85.4515 20.0958 84.6058 20.4676C83.7781 20.8226 82.8805 21 81.9146 21ZM94.2469 21C93.0391 21 91.944 20.7211 90.9601 20.1633C89.9769 19.5888 89.192 18.8197 88.6054 17.8563C88.0361 16.893 87.7514 15.8197 87.7514 14.6366C87.7514 13.4535 88.0361 12.3887 88.6054 11.4422C89.192 10.4958 89.9769 9.74362 90.9601 9.18592C91.944 8.61126 93.0391 8.32396 94.2469 8.32396C95.472 8.32396 96.5761 8.60284 97.5593 9.16054C98.5432 9.7183 99.3191 10.4789 99.8884 11.4422C100.476 12.3887 100.769 13.4535 100.769 14.6366C100.769 15.8197 100.476 16.893 99.8884 17.8563C99.3191 18.8197 98.5432 19.5888 97.5593 20.1633C96.5761 20.7211 95.472 21 94.2469 21ZM94.2469 18.3127C94.9545 18.3127 95.5756 18.1605 96.1104 17.8563C96.6625 17.5352 97.0853 17.0958 97.3783 16.538C97.6892 15.9803 97.8447 15.3465 97.8447 14.6366C97.8447 13.9268 97.6892 13.3014 97.3783 12.7606C97.0681 12.2197 96.6452 11.7972 96.1104 11.4929C95.5756 11.1718 94.9545 11.0112 94.2469 11.0112C93.5567 11.0112 92.9355 11.1718 92.3842 11.4929C91.8494 11.7972 91.4258 12.2197 91.1156 12.7606C90.8227 13.3014 90.6754 13.9268 90.6754 14.6366C90.6754 15.3465 90.8227 15.9803 91.1156 16.538C91.4258 17.0958 91.8494 17.5352 92.3842 17.8563C92.9355 18.1605 93.5567 18.3127 94.2469 18.3127ZM108.235 21C107.182 21 106.241 20.7718 105.414 20.3155C104.603 19.8592 103.965 19.2338 103.498 18.4395C103.05 17.6282 102.825 16.6986 102.825 15.6507V8.57746H105.673V15.5239C105.673 16.1155 105.767 16.6225 105.957 17.0451C106.164 17.4507 106.458 17.7634 106.837 17.9831C107.234 18.2028 107.7 18.3127 108.235 18.3127C109.062 18.3127 109.693 18.076 110.124 17.6028C110.572 17.1127 110.797 16.4197 110.797 15.5239V8.57746H113.643V15.6507C113.643 16.7155 113.411 17.6535 112.944 18.4648C112.496 19.2592 111.866 19.8845 111.055 20.3408C110.244 20.7803 109.304 21 108.235 21ZM120.698 20.7465L115.03 8.57746H118.188L122.509 18.4901H120.646L124.994 8.57746H128.022L122.354 20.7465H120.698ZM135.04 21C133.798 21 132.676 20.7296 131.675 20.1887C130.692 19.631 129.907 18.8704 129.32 17.907C128.751 16.9437 128.466 15.8619 128.466 14.662C128.466 13.4619 128.751 12.3887 129.32 11.4422C129.89 10.4789 130.657 9.7183 131.623 9.16054C132.607 8.60284 133.694 8.32396 134.884 8.32396C136.04 8.32396 137.058 8.58594 137.938 9.10984C138.835 9.63381 139.534 10.3521 140.034 11.2647C140.552 12.1775 140.811 13.2169 140.811 14.3831C140.811 14.5859 140.793 14.7972 140.759 15.0169C140.742 15.2197 140.707 15.4479 140.655 15.7014H130.459V13.4197H139.18L138.12 14.3324C138.085 13.5887 137.938 12.9634 137.679 12.4564C137.42 11.9493 137.049 11.5606 136.567 11.2901C136.101 11.0197 135.522 10.8845 134.833 10.8845C134.108 10.8845 133.478 11.0366 132.944 11.3408C132.409 11.6451 131.994 12.0761 131.701 12.6338C131.408 13.1746 131.261 13.8253 131.261 14.5859C131.261 15.3465 131.417 16.014 131.727 16.5887C132.038 17.1634 132.477 17.6113 133.047 17.9324C133.616 18.2366 134.272 18.3887 135.014 18.3887C135.652 18.3887 136.239 18.2788 136.774 18.0591C137.326 17.8394 137.791 17.5183 138.171 17.0958L139.982 18.8958C139.378 19.5888 138.645 20.1126 137.782 20.4676C136.92 20.8226 136.006 21 135.04 21ZM143.093 20.7465V8.57746H145.939V20.7465H143.093ZM145.939 13.9774L144.956 13.4957C144.956 11.9578 145.301 10.7155 145.991 9.769C146.699 8.80564 147.76 8.32396 149.174 8.32396C149.795 8.32396 150.356 8.43384 150.857 8.65354C151.357 8.87324 151.823 9.22814 152.255 9.7183L150.391 11.5943C150.166 11.3577 149.916 11.1887 149.64 11.0873C149.364 10.9859 149.045 10.9352 148.683 10.9352C147.889 10.9352 147.233 11.1803 146.716 11.6704C146.198 12.1606 145.939 12.9296 145.939 13.9774Z" fill="#1E1D1E"/>
</svg>
