<svg width="86" height="24" viewBox="0 0 86 24" fill="none" xmlns="http://www.w3.org/2000/svg">
<path d="M45.0316 18.2725V4.01342H47.7435V18.2725H45.0316Z" fill="#1E1D1E"/>
<path d="M22.0784 4.40784L27.812 18.2725H30.0474L35.8433 4.40784H32.8419L28.9636 14.1421L25.1211 4.40784H22.0784Z" fill="#1E1D1E"/>
<path fill-rule="evenodd" clip-rule="evenodd" d="M36.2481 17.8188C37.0623 18.2528 37.9732 18.4695 38.9806 18.4695C39.9878 18.4695 40.8918 18.2528 41.6922 17.8188C42.5063 17.3717 43.1479 16.7736 43.6171 16.0241C44.0864 15.2615 44.321 14.4136 44.321 13.48C44.321 12.5464 44.0864 11.7116 43.6171 10.9753C43.1479 10.2259 42.5063 9.63415 41.6922 9.2003C40.8918 8.75328 39.9809 8.52974 38.96 8.52974C37.9663 8.52974 37.0623 8.75328 36.2481 9.2003C35.434 9.63415 34.7924 10.2259 34.3232 10.9753C33.8539 11.7116 33.6196 12.5464 33.6196 13.48C33.6196 14.4136 33.8539 15.2615 34.3232 16.0241C34.8062 16.7736 35.4477 17.3717 36.2481 17.8188ZM40.3054 15.748C39.9189 15.9585 39.4703 16.0635 38.96 16.0635C38.4631 16.0635 38.0214 15.9585 37.6352 15.748C37.2486 15.5245 36.9451 15.2222 36.7243 14.8407C36.5034 14.4464 36.3931 13.9993 36.3931 13.4997C36.3931 13 36.5034 12.5596 36.7243 12.1783C36.9451 11.797 37.2486 11.5012 37.6352 11.2908C38.0214 11.0673 38.4631 10.9555 38.96 10.9555C39.4703 10.9555 39.9189 11.0673 40.3054 11.2908C40.6917 11.5012 40.9952 11.797 41.216 12.1783C41.4369 12.5596 41.5472 13 41.5472 13.4997C41.5472 13.9993 41.4369 14.4464 41.216 14.8407C41.009 15.2222 40.7055 15.5245 40.3054 15.748Z" fill="#1E1D1E"/>
<path d="M51.0152 17.9371C51.7051 18.2922 52.4916 18.4695 53.375 18.4695C54.2581 18.4695 55.0378 18.2988 55.7138 17.9567C56.4039 17.6019 56.9351 17.1088 57.3076 16.4779C57.6942 15.8466 57.8872 15.1103 57.8872 14.2689V8.7467H55.1756V14.2096C55.1756 14.8013 55.0171 15.2615 54.6994 15.5902C54.3822 15.9188 53.9408 16.0832 53.375 16.0832C53.0022 16.0832 52.678 16.011 52.402 15.8663C52.1261 15.7218 51.919 15.5114 51.7812 15.2353C51.643 14.9461 51.5741 14.6041 51.5741 14.2096V8.7467H48.8419V14.2689C48.8419 15.0971 49.0349 15.8268 49.4214 16.4581C49.8077 17.0891 50.3389 17.5821 51.0152 17.9371Z" fill="#1E1D1E"/>
<path d="M59.0118 18.2725V8.7467H61.7231V9.57319C61.9658 9.34752 62.2415 9.15751 62.5514 9.00309C63.1308 8.70069 63.7864 8.54949 64.5174 8.54949C65.2079 8.54949 65.8353 8.70069 66.401 9.00309C66.8755 9.24549 67.2671 9.57566 67.577 9.99346C67.911 9.58677 68.3196 9.26325 68.8024 9.02283C69.4099 8.70727 70.0854 8.54949 70.8307 8.54949C71.5761 8.54949 72.2454 8.70069 72.8385 9.00309C73.4323 9.29232 73.9014 9.71307 74.2463 10.2653C74.5912 10.8176 74.764 11.4749 74.764 12.2375V18.2725H72.052V12.6516C72.052 12.0994 71.8662 11.6721 71.4931 11.3698C71.1345 11.0542 70.686 10.8964 70.1478 10.8964C69.8028 10.8964 69.4785 10.9688 69.1747 11.1133C68.8854 11.2448 68.6577 11.442 68.4918 11.705C68.3265 11.968 68.2435 12.2835 68.2435 12.6516V18.2725H65.5315V12.6516C65.5315 12.0994 65.3457 11.6721 64.9734 11.3698C64.614 11.0542 64.1656 10.8964 63.6273 10.8964C63.2687 10.8964 62.9443 10.9688 62.6543 11.1133C62.3649 11.2448 62.1372 11.442 61.972 11.705C61.806 11.968 61.7231 12.2835 61.7231 12.6516V18.2725H59.0118Z" fill="#1E1D1E"/>
<path fill-rule="evenodd" clip-rule="evenodd" d="M77.9142 17.8385C78.7281 18.2593 79.6593 18.4695 80.7084 18.4695C81.5224 18.4695 82.2746 18.3316 82.9644 18.0555C83.6687 17.7794 84.2618 17.3717 84.7446 16.8327L83.151 15.3141C82.8472 15.6427 82.4885 15.8925 82.0744 16.0635C81.6602 16.2214 81.198 16.3003 80.6879 16.3003C80.1222 16.3003 79.625 16.1883 79.1971 15.9651C78.7699 15.7284 78.438 15.3994 78.2035 14.9789C78.1158 14.8053 78.0444 14.6206 77.9923 14.4241L85.3034 14.4068C85.359 14.1834 85.3932 13.9862 85.407 13.8152C85.4351 13.6312 85.4488 13.4536 85.4488 13.2828C85.4488 12.3755 85.2348 11.5669 84.807 10.8569C84.3928 10.1338 83.8134 9.56846 83.068 9.16087C82.337 8.74011 81.4881 8.52974 80.5219 8.52974C79.542 8.52974 78.652 8.75328 77.8518 9.2003C77.0515 9.63415 76.4166 10.2259 75.9475 10.9753C75.4922 11.7116 75.2646 12.553 75.2646 13.4997C75.2646 14.4596 75.4991 15.3141 75.9681 16.0635C76.4515 16.813 77.0995 17.4046 77.9142 17.8385ZM77.9944 12.4908C78.0424 12.3165 78.1055 12.1531 78.183 12.0008C78.4038 11.5801 78.7144 11.2579 79.1148 11.0344C79.5146 10.7977 79.9836 10.6795 80.5219 10.6795C81.0328 10.6795 81.4607 10.7846 81.8056 10.995C82.1642 11.1922 82.433 11.4815 82.6127 11.8628C82.7052 12.0464 82.7793 12.2512 82.8342 12.4775L77.9944 12.4908Z" fill="#1E1D1E"/>
<path fill-rule="evenodd" clip-rule="evenodd" d="M5.41332 24C12.3692 24 18.0078 18.6274 18.0078 12C18.0078 5.37258 12.3692 0 5.41332 0C-1.54249 0 -7.18127 5.37258 -7.18127 12C-7.18127 18.6274 -1.54249 24 5.41332 24ZM10.6294 4.65508C10.779 4.77553 10.865 4.95257 10.865 5.13909L10.8647 7.54999L10.865 7.70866L10.8647 7.72759V15.798C10.8647 17.1996 9.67201 18.3359 8.20102 18.3359C6.73003 18.3359 5.5375 17.1996 5.5375 15.798C5.5375 14.3964 6.73003 13.2601 8.20102 13.2601C8.68616 13.2601 9.14107 13.3838 9.53268 13.5997V8.45753L2.87377 9.51518V17.0668C2.87377 18.4686 1.68125 19.6046 0.210254 19.6046C-1.26082 19.6046 -2.45328 18.4686 -2.45328 17.0668C-2.45328 15.6652 -1.26082 14.5289 0.210254 14.5289C0.695397 14.5289 1.15044 14.6525 1.54198 14.8687L1.54225 8.97751L1.54198 8.8189L1.54225 8.79991V6.40797C1.54225 6.09793 1.77759 5.83321 2.09885 5.78217L10.0895 4.5133C10.2824 4.48263 10.4799 4.53448 10.6294 4.65508Z" fill="#1E1D1E"/>
</svg>
