<svg width="122" height="24" viewBox="0 0 122 24" fill="none" xmlns="http://www.w3.org/2000/svg">
<path d="M24.2789 12C24.2789 18.6274 18.9064 24 12.2791 24C5.65166 24 0.279053 18.6274 0.279053 12C0.279053 5.37257 5.65166 0 12.2791 0C18.9064 0 24.2789 5.37257 24.2789 12Z" fill="#1E1D1E"/>
<path d="M30.5827 21.2693L36.7596 1.67757H41.5622L47.7391 21.2693H44.3651L38.7596 3.69116H39.4942L33.9569 21.2693H30.5827ZM34.0249 17.0244V13.9632H44.3107V17.0244H34.0249Z" fill="#1E1D1E"/>
<path d="M66.2128 21.2692V12.3441C66.2128 11.3373 65.9633 10.5527 65.4644 9.99038C64.9657 9.41893 64.2899 9.13323 63.4373 9.13323C62.9113 9.13323 62.4395 9.25572 62.0224 9.50058C61.6051 9.7364 61.2739 10.0902 61.0291 10.5618C60.7842 11.0244 60.6617 11.5776 60.6617 12.2217L59.206 11.3645C59.1969 10.3487 59.4237 9.45524 59.8862 8.68426C60.358 7.90422 60.9928 7.2965 61.7911 6.86113C62.5893 6.42575 63.4781 6.20809 64.4577 6.20809C66.0813 6.20809 67.3239 6.69786 68.1855 7.67746C69.0564 8.64797 69.4917 9.92688 69.4917 11.5142V21.2692H66.2128ZM48.5393 21.2692V6.57542H51.4374V11.1333H51.8455V21.2692H48.5393ZM57.3964 21.2692V12.3849C57.3964 11.36 57.1471 10.5618 56.6482 9.99038C56.1493 9.41893 55.4691 9.13323 54.6073 9.13323C53.7728 9.13323 53.1018 9.41893 52.5938 9.99038C52.0949 10.5618 51.8455 11.3056 51.8455 12.2217L50.376 11.2421C50.376 10.2897 50.612 9.43257 51.0836 8.67066C51.5553 7.90875 52.1903 7.31011 52.9884 6.87473C53.7955 6.43031 54.698 6.20809 55.6957 6.20809C56.7933 6.20809 57.7093 6.44391 58.4442 6.91555C59.188 7.37815 59.7411 8.01306 60.104 8.82032C60.4758 9.61853 60.6617 10.521 60.6617 11.5278V21.2692H57.3964Z" fill="#1E1D1E"/>
<path d="M77.0807 21.6776C75.2664 21.6776 73.7927 21.2694 72.6589 20.453C71.5251 19.6367 70.8358 18.4893 70.5909 17.0109L73.9378 16.4939C74.11 17.2195 74.4911 17.791 75.0806 18.2081C75.6702 18.6254 76.414 18.834 77.3118 18.834C78.1009 18.834 78.7087 18.6798 79.1351 18.3714C79.5705 18.054 79.788 17.6231 79.788 17.0789C79.788 16.7433 79.7064 16.4757 79.5431 16.2762C79.3889 16.0676 79.0442 15.868 78.5091 15.6776C77.974 15.4871 77.1531 15.2467 76.0467 14.9565C74.8131 14.6299 73.8334 14.2807 73.1078 13.9089C72.3823 13.5279 71.8607 13.0789 71.5431 12.5619C71.2258 12.045 71.0669 11.4191 71.0669 10.6844C71.0669 9.76829 71.3074 8.97008 71.788 8.28981C72.2689 7.60955 72.94 7.08799 73.8018 6.7252C74.6634 6.35331 75.6794 6.16738 76.8494 6.16738C77.9922 6.16738 79.0035 6.34424 79.8833 6.69798C80.7722 7.05173 81.4889 7.55513 82.0326 8.20819C82.5772 8.86123 82.9132 9.62766 83.0397 10.5075L79.6929 11.1062C79.6111 10.4803 79.3255 9.98596 78.8357 9.62315C78.3549 9.26033 77.7109 9.05626 76.9038 9.0109C76.1327 8.96554 75.5114 9.08346 75.0398 9.36465C74.5683 9.63678 74.3323 10.0223 74.3323 10.5211C74.3323 10.8023 74.4276 11.0427 74.618 11.2422C74.8084 11.4417 75.1893 11.6412 75.7609 11.8408C76.3413 12.0404 77.2031 12.2853 78.346 12.5755C79.516 12.8748 80.4502 13.2195 81.1488 13.6096C81.856 13.9905 82.3636 14.4485 82.6725 14.9837C82.9895 15.5188 83.1489 16.1674 83.1489 16.9292C83.1489 18.4077 82.6092 19.5687 81.5299 20.4122C80.4593 21.2558 78.9762 21.6776 77.0807 21.6776Z" fill="#1E1D1E"/>
<path d="M123.113 21.6776C121.299 21.6776 119.825 21.2694 118.691 20.453C117.558 19.6367 116.868 18.4893 116.623 17.0109L119.97 16.4939C120.142 17.2195 120.524 17.791 121.113 18.2081C121.703 18.6254 122.446 18.834 123.344 18.834C124.133 18.834 124.741 18.6798 125.168 18.3714C125.603 18.054 125.82 17.6231 125.82 17.0789C125.82 16.7433 125.739 16.4757 125.576 16.2762C125.421 16.0676 125.077 15.868 124.542 15.6776C124.006 15.4871 123.186 15.2467 122.079 14.9565C120.846 14.6299 119.866 14.2807 119.14 13.9089C118.415 13.5279 117.893 13.0789 117.576 12.5619C117.258 12.045 117.099 11.4191 117.099 10.6844C117.099 9.76829 117.34 8.97008 117.82 8.28981C118.301 7.60955 118.972 7.08799 119.834 6.7252C120.696 6.35331 121.712 6.16738 122.882 6.16738C124.025 6.16738 125.036 6.34424 125.916 6.69798C126.805 7.05173 127.521 7.55513 128.065 8.20819C128.61 8.86123 128.946 9.62766 129.072 10.5075L125.725 11.1062C125.644 10.4803 125.358 9.98596 124.868 9.62315C124.387 9.26033 123.743 9.05626 122.936 9.0109C122.165 8.96554 121.544 9.08346 121.072 9.36465C120.601 9.63678 120.365 10.0223 120.365 10.5211C120.365 10.8023 120.46 11.0427 120.65 11.2422C120.841 11.4417 121.222 11.6412 121.793 11.8408C122.374 12.0404 123.236 12.2853 124.378 12.5755C125.548 12.8748 126.483 13.2195 127.181 13.6096C127.888 13.9905 128.396 14.4485 128.705 14.9837C129.022 15.5188 129.181 16.1674 129.181 16.9292C129.181 18.4077 128.642 19.5687 127.562 20.4122C126.492 21.2558 125.009 21.6776 123.113 21.6776Z" fill="#1E1D1E"/>
<path d="M93.1083 21.2694C92.1383 21.4508 91.1855 21.5279 90.2515 21.5007C89.3258 21.4825 88.4962 21.3147 87.7619 20.9973C87.0267 20.6707 86.469 20.1583 86.0879 19.4598C85.7527 18.825 85.5753 18.1764 85.5572 17.5143C85.5392 16.8522 85.5301 16.1039 85.5301 15.2694V2.49395H88.7952V15.0789C88.7952 15.6685 88.8001 16.1855 88.8092 16.63C88.8272 17.0744 88.9225 17.4372 89.095 17.7184C89.4211 18.2627 89.9427 18.5665 90.6598 18.63C91.376 18.6935 92.1925 18.6572 93.1083 18.5211V21.2694ZM82.8639 9.14698V6.57557H93.1083V9.14698H82.8639Z" fill="#1E1D1E"/>
<path d="M100.572 21.6776C99.084 21.6776 97.778 21.3555 96.6535 20.7115C95.529 20.0675 94.6485 19.1741 94.0135 18.0313C93.3876 16.8884 93.0755 15.5733 93.0755 14.0857C93.0755 12.4803 93.3835 11.0879 94.0004 9.90883C94.6172 8.72066 95.474 7.80001 96.5714 7.14695C97.6687 6.49391 98.9394 6.16738 100.381 6.16738C101.905 6.16738 103.198 6.52564 104.259 7.24219C105.329 7.94968 106.123 8.95195 106.64 10.249C107.157 11.546 107.351 13.0744 107.225 14.834H103.973V13.6367C103.964 12.0404 103.683 10.8749 103.129 10.1401C102.577 9.40547 101.706 9.0381 100.517 9.0381C99.1752 9.0381 98.1772 9.45533 97.5242 10.2898C96.8712 11.1152 96.5443 12.3261 96.5443 13.9224C96.5443 15.41 96.8712 16.5619 97.5242 17.3782C98.1772 18.1945 99.1292 18.6027 100.381 18.6027C101.188 18.6027 101.883 18.4258 102.463 18.0721C103.052 17.7093 103.506 17.1877 103.823 16.5074L107.061 17.487C106.499 18.8113 105.628 19.8408 104.449 20.5755C103.279 21.3102 101.987 21.6776 100.572 21.6776ZM95.5101 14.834V12.3578H105.619V14.834H95.5101Z" fill="#1E1D1E"/>
<path d="M108.628 21.2693V6.57544H111.526V10.1537L111.172 9.69109C111.353 9.20128 111.594 8.75684 111.893 8.35774C112.202 7.94959 112.569 7.61399 112.995 7.35095C113.358 7.10607 113.757 6.91558 114.193 6.77953C114.637 6.6344 115.091 6.54824 115.553 6.52102C116.015 6.48473 116.465 6.50289 116.9 6.57544V9.63663C116.465 9.50964 115.961 9.46882 115.39 9.51424C114.828 9.55958 114.319 9.71828 113.866 9.9904C113.412 10.2353 113.04 10.5482 112.75 10.9292C112.47 11.3101 112.261 11.7455 112.125 12.2353C111.988 12.716 111.92 13.2376 111.92 13.7999V21.2693H108.628Z" fill="#1E1D1E"/>
</svg>
