<svg width="76" height="22" viewBox="0 0 76 22" fill="none" xmlns="http://www.w3.org/2000/svg">
<path d="M25.8347 4.38501H28.2489V17.4841H25.8347V4.38501Z" fill="#1E1D1E"/>
<path d="M36.2407 7.37915C37.4911 7.37915 38.494 7.74718 39.2491 8.48322C40.0042 9.21927 40.3818 10.3109 40.3818 11.758V17.4841H38.0606V12.0576C38.0606 11.1841 37.8563 10.5292 37.4476 10.0926C37.0392 9.64347 36.4573 9.41887 35.7022 9.41887C34.8477 9.41887 34.1729 9.68087 33.6779 10.2049C33.1827 10.7164 32.9349 11.4587 32.9349 12.4317V17.4841H30.6137V7.49144H32.8235V8.78264C33.2074 8.32104 33.6903 7.97174 34.2721 7.73471C34.8541 7.49767 35.5103 7.37915 36.2407 7.37915Z" fill="#1E1D1E"/>
<path d="M51.5023 7.49134L47.2495 17.484H44.854L40.6011 7.49134H43.0153L46.0981 14.9017L49.2738 7.49134H51.5023Z" fill="#1E1D1E"/>
<path d="M61.0749 12.5439C61.0749 12.7063 61.0625 12.9369 61.0378 13.2364H53.2564C53.3928 13.9724 53.7456 14.5587 54.3151 14.9954C54.8971 15.4197 55.6151 15.6317 56.4692 15.6317C57.5588 15.6317 58.4564 15.2698 59.162 14.5463L60.4063 15.9872C59.9606 16.5237 59.3972 16.9291 58.7163 17.2034C58.0353 17.478 57.2678 17.6152 56.4136 17.6152C55.3241 17.6152 54.3646 17.3969 53.535 16.9604C52.7057 16.5237 52.0618 15.9185 51.6037 15.1451C51.1579 14.3592 50.9352 13.4733 50.9352 12.4879C50.9352 11.5147 51.1519 10.6415 51.5852 9.86797C52.0308 9.08207 52.6437 8.47075 53.4237 8.03412C54.2036 7.59748 55.0826 7.37915 56.0606 7.37915C57.0263 7.37915 57.8868 7.59748 58.642 8.03412C59.4095 8.45828 60.0038 9.06337 60.4248 9.84927C60.8582 10.6228 61.0749 11.5211 61.0749 12.5439ZM56.0606 9.25047C55.3178 9.25047 54.6865 9.47497 54.1665 9.92417C53.6587 10.3608 53.3494 10.9472 53.238 11.6832H58.8649C58.7657 10.9597 58.4624 10.3733 57.955 9.92417C57.4474 9.47497 56.8159 9.25047 56.0606 9.25047Z" fill="#1E1D1E"/>
<path d="M64.5859 8.95096C65.2545 7.90303 66.4307 7.56618 68.1142 7.56618V9.43747C67.9162 9.40007 67.7366 9.38137 67.5757 9.38137C66.672 9.38137 65.9662 9.81797 65.4588 10.3545C64.9511 10.8784 64.6973 11.6393 64.6973 12.6375V17.484H62.3758V7.49134H64.5859V8.95096Z" fill="#1E1D1E"/>
<path d="M75.946 16.9415C75.6735 17.1659 75.3394 17.3344 74.9431 17.4466C74.5595 17.5591 74.1508 17.6151 73.7174 17.6151C72.628 17.6151 71.7861 17.3283 71.1919 16.7544C70.5976 16.1805 70.3006 15.3445 70.3006 14.2469V9.43747H68.6663V7.5662H70.3006V5.28321H72.6218V7.5662H75.2775V9.43747H72.6218V14.1907C72.6218 14.6772 72.7395 15.0514 72.9747 15.3135C73.2098 15.5629 73.5503 15.6878 73.996 15.6878C74.516 15.6878 74.9495 15.5504 75.2959 15.2761L75.946 16.9415Z" fill="#1E1D1E"/>
<path fill-rule="evenodd" clip-rule="evenodd" d="M22.0872 11C22.0872 17.0752 17.1998 22 11.1708 22C5.14193 22 0.254517 17.0752 0.254517 11C0.254517 4.92487 5.14193 0 11.1708 0C17.1998 0 22.0872 4.92487 22.0872 11ZM18.6564 11C18.6564 15.1658 15.3051 18.5428 11.171 18.5428C10.8845 18.5428 10.6015 18.5266 10.3233 18.4951C14.0853 18.0967 17.0173 14.8903 17.0173 10.9938C17.0173 7.11685 14.1144 3.92303 10.3795 3.49882C10.6396 3.47128 10.9037 3.45715 11.171 3.45715C15.3051 3.45715 18.6564 6.83422 18.6564 11ZM8.75362 16.313C11.2207 15.8738 13.0973 13.6622 13.0973 11C13.0973 8.3377 11.2207 6.12606 8.75362 5.68705C9.05218 5.63498 9.35918 5.60785 9.67248 5.60785C12.6279 5.60785 15.0237 8.022 15.0237 11C15.0237 13.978 12.6279 16.3922 9.67248 16.3922C9.35918 16.3922 9.05218 16.365 8.75362 16.313Z" fill="#1E1D1E"/>
</svg>
