<svg width="93" height="24" viewBox="0 0 93 24" fill="none" xmlns="http://www.w3.org/2000/svg">
<path d="M52.2129 18.2725V4.01342H54.9248V18.2725H52.2129Z" fill="#1E1D1E"/>
<path d="M29.2597 4.40784L34.9932 18.2725H37.2287L43.0245 4.40784H40.0232L36.1448 14.1421L32.3024 4.40784H29.2597Z" fill="#1E1D1E"/>
<path fill-rule="evenodd" clip-rule="evenodd" d="M43.4294 17.8188C44.2435 18.2528 45.1545 18.4695 46.1619 18.4695C47.1691 18.4695 48.0731 18.2528 48.8735 17.8188C49.6876 17.3717 50.3292 16.7736 50.7984 16.0241C51.2676 15.2615 51.5023 14.4136 51.5023 13.48C51.5023 12.5464 51.2676 11.7116 50.7984 10.9753C50.3292 10.2259 49.6876 9.63415 48.8735 9.2003C48.0731 8.75328 47.1621 8.52974 46.1412 8.52974C45.1476 8.52974 44.2435 8.75328 43.4294 9.2003C42.6152 9.63415 41.9737 10.2259 41.5044 10.9753C41.0351 11.7116 40.8008 12.5464 40.8008 13.48C40.8008 14.4136 41.0351 15.2615 41.5044 16.0241C41.9875 16.7736 42.629 17.3717 43.4294 17.8188ZM47.4867 15.748C47.1001 15.9585 46.6516 16.0635 46.1412 16.0635C45.6444 16.0635 45.2027 15.9585 44.8164 15.748C44.4299 15.5245 44.1263 15.2222 43.9055 14.8407C43.6847 14.4464 43.5744 13.9993 43.5744 13.4997C43.5744 13 43.6847 12.5596 43.9055 12.1783C44.1263 11.797 44.4299 11.5012 44.8164 11.2908C45.2027 11.0673 45.6444 10.9555 46.1412 10.9555C46.6516 10.9555 47.1001 11.0673 47.4867 11.2908C47.8729 11.5012 48.1764 11.797 48.3973 12.1783C48.6182 12.5596 48.7284 13 48.7284 13.4997C48.7284 13.9993 48.6182 14.4464 48.3973 14.8407C48.1902 15.2222 47.8867 15.5245 47.4867 15.748Z" fill="#1E1D1E"/>
<path d="M58.1965 17.9371C58.8863 18.2922 59.6729 18.4695 60.5563 18.4695C61.4394 18.4695 62.2191 18.2988 62.8951 17.9567C63.5852 17.6019 64.1164 17.1088 64.4889 16.4779C64.8754 15.8466 65.0685 15.1103 65.0685 14.2689V8.7467H62.3569V14.2096C62.3569 14.8013 62.1984 15.2615 61.8807 15.5902C61.5634 15.9188 61.122 16.0832 60.5563 16.0832C60.1835 16.0832 59.8593 16.011 59.5833 15.8663C59.3074 15.7218 59.1003 15.5114 58.9625 15.2353C58.8243 14.9461 58.7554 14.6041 58.7554 14.2096V8.7467H56.0231V14.2689C56.0231 15.0971 56.2162 15.8268 56.6027 16.4581C56.989 17.0891 57.5202 17.5821 58.1965 17.9371Z" fill="#1E1D1E"/>
<path d="M66.193 18.2725V8.7467H68.9044V9.57319C69.1471 9.34752 69.4227 9.15751 69.7327 9.00309C70.3121 8.70069 70.9677 8.54949 71.6986 8.54949C72.3891 8.54949 73.0166 8.70069 73.5823 9.00309C74.0568 9.24549 74.4484 9.57566 74.7583 9.99346C75.0922 9.58677 75.5009 9.26325 75.9837 9.02283C76.5912 8.70727 77.2666 8.54949 78.012 8.54949C78.7574 8.54949 79.4266 8.70069 80.0198 9.00309C80.6136 9.29232 81.0826 9.71307 81.4276 10.2653C81.7725 10.8176 81.9453 11.4749 81.9453 12.2375V18.2725H79.2333V12.6516C79.2333 12.0994 79.0474 11.6721 78.6744 11.3698C78.3158 11.0542 77.8673 10.8964 77.329 10.8964C76.9841 10.8964 76.6598 10.9688 76.356 11.1133C76.0666 11.2448 75.839 11.442 75.673 11.705C75.5078 11.968 75.4248 12.2835 75.4248 12.6516V18.2725H72.7128V12.6516C72.7128 12.0994 72.527 11.6721 72.1546 11.3698C71.7953 11.0542 71.3469 10.8964 70.8086 10.8964C70.4499 10.8964 70.1256 10.9688 69.8355 11.1133C69.5462 11.2448 69.3185 11.442 69.1533 11.705C68.9873 11.968 68.9044 12.2835 68.9044 12.6516V18.2725H66.193Z" fill="#1E1D1E"/>
<path fill-rule="evenodd" clip-rule="evenodd" d="M85.0954 17.8385C85.9094 18.2593 86.8406 18.4695 87.8897 18.4695C88.7037 18.4695 89.4559 18.3316 90.1457 18.0555C90.8499 17.7794 91.4431 17.3717 91.9258 16.8327L90.3322 15.3141C90.0285 15.6427 89.6698 15.8925 89.2557 16.0635C88.8415 16.2214 88.3793 16.3003 87.8691 16.3003C87.3034 16.3003 86.8063 16.1883 86.3784 15.9651C85.9512 15.7284 85.6193 15.3994 85.3848 14.9789C85.297 14.8053 85.2257 14.6206 85.1736 14.4241L92.4847 14.4068C92.5402 14.1834 92.5745 13.9862 92.5882 13.8152C92.6163 13.6312 92.6301 13.4536 92.6301 13.2828C92.6301 12.3755 92.4161 11.5669 91.9882 10.8569C91.5741 10.1338 90.9946 9.56846 90.2493 9.16087C89.5183 8.74011 88.6694 8.52974 87.7032 8.52974C86.7233 8.52974 85.8333 8.75328 85.033 9.2003C84.2328 9.63415 83.5978 10.2259 83.1288 10.9753C82.6735 11.7116 82.4458 12.553 82.4458 13.4997C82.4458 14.4596 82.6803 15.3141 83.1494 16.0635C83.6328 16.813 84.2808 17.4046 85.0954 17.8385ZM85.1757 12.4908C85.2237 12.3165 85.2867 12.1531 85.3642 12.0008C85.585 11.5801 85.8957 11.2579 86.2961 11.0344C86.6959 10.7977 87.1649 10.6795 87.7032 10.6795C88.2141 10.6795 88.6419 10.7846 88.9869 10.995C89.3455 11.1922 89.6143 11.4815 89.7939 11.8628C89.8865 12.0464 89.9606 12.2512 90.0154 12.4775L85.1757 12.4908Z" fill="#1E1D1E"/>
<path fill-rule="evenodd" clip-rule="evenodd" d="M12.5946 24C19.5505 24 25.189 18.6274 25.189 12C25.189 5.37258 19.5505 0 12.5946 0C5.63878 0 0 5.37258 0 12C0 18.6274 5.63878 24 12.5946 24ZM17.8107 4.65508C17.9602 4.77553 18.0462 4.95257 18.0462 5.13909L18.0459 7.54999L18.0462 7.70866L18.0459 7.72759V15.798C18.0459 17.1996 16.8533 18.3359 15.3823 18.3359C13.9113 18.3359 12.7188 17.1996 12.7188 15.798C12.7188 14.3964 13.9113 13.2601 15.3823 13.2601C15.8674 13.2601 16.3223 13.3838 16.714 13.5997V8.45753L10.055 9.51518V17.0668C10.055 18.4686 8.86252 19.6046 7.39153 19.6046C5.92046 19.6046 4.72799 18.4686 4.72799 17.0668C4.72799 15.6652 5.92046 14.5289 7.39153 14.5289C7.87667 14.5289 8.33171 14.6525 8.72325 14.8687L8.72353 8.97751L8.72325 8.8189L8.72353 8.79991V6.40797C8.72353 6.09793 8.95887 5.83321 9.28012 5.78217L17.2708 4.5133C17.4637 4.48263 17.6612 4.53448 17.8107 4.65508Z" fill="#1E1D1E"/>
</svg>
