<svg width="129" height="24" viewBox="0 0 129 24" fill="none" xmlns="http://www.w3.org/2000/svg">
<path d="M23.9998 12C23.9998 18.6274 18.6273 24 12 24C5.37261 24 0 18.6274 0 12C0 5.37257 5.37261 0 12 0C18.6273 0 23.9998 5.37257 23.9998 12Z" fill="#1E1D1E"/>
<path d="M30.3037 21.2693L36.4805 1.67757H41.2831L47.4601 21.2693H44.0861L38.4805 3.69116H39.2152L33.6778 21.2693H30.3037ZM33.7458 17.0244V13.9632H44.0316V17.0244H33.7458Z" fill="#1E1D1E"/>
<path d="M65.9338 21.2692V12.3441C65.9338 11.3373 65.6842 10.5527 65.1853 9.99038C64.6866 9.41893 64.0109 9.13323 63.1583 9.13323C62.6322 9.13323 62.1604 9.25572 61.7433 9.50058C61.3261 9.7364 60.9949 10.0902 60.75 10.5618C60.5052 11.0244 60.3827 11.5776 60.3827 12.2217L58.9269 11.3645C58.9178 10.3487 59.1447 9.45524 59.6071 8.68426C60.0789 7.90422 60.7138 7.2965 61.512 6.86113C62.3103 6.42575 63.1991 6.20809 64.1787 6.20809C65.8023 6.20809 67.0449 6.69786 67.9064 7.67746C68.7774 8.64797 69.2126 9.92688 69.2126 11.5142V21.2692H65.9338ZM48.2603 21.2692V6.57542H51.1583V11.1333H51.5665V21.2692H48.2603ZM57.1174 21.2692V12.3849C57.1174 11.36 56.868 10.5618 56.3692 9.99038C55.8703 9.41893 55.1901 9.13323 54.3282 9.13323C53.4938 9.13323 52.8227 9.41893 52.3148 9.99038C51.8158 10.5618 51.5665 11.3056 51.5665 12.2217L50.097 11.2421C50.097 10.2897 50.333 9.43257 50.8045 8.67066C51.2763 7.90875 51.9112 7.31011 52.7094 6.87473C53.5165 6.43031 54.4189 6.20809 55.4167 6.20809C56.5142 6.20809 57.4303 6.44391 58.1652 6.91555C58.9089 7.37815 59.4621 8.01306 59.825 8.82032C60.1967 9.61853 60.3827 10.521 60.3827 11.5278V21.2692H57.1174Z" fill="#1E1D1E"/>
<path d="M76.8016 21.6776C74.9874 21.6776 73.5136 21.2694 72.3799 20.453C71.2461 19.6367 70.5568 18.4893 70.3118 17.0109L73.6588 16.4939C73.8309 17.2195 74.2121 17.791 74.8016 18.2081C75.3912 18.6254 76.135 18.834 77.0327 18.834C77.8219 18.834 78.4296 18.6798 78.8561 18.3714C79.2914 18.054 79.5089 17.6231 79.5089 17.0789C79.5089 16.7433 79.4274 16.4757 79.2641 16.2762C79.1098 16.0676 78.7652 15.868 78.23 15.6776C77.695 15.4871 76.8741 15.2467 75.7676 14.9565C74.5341 14.6299 73.5543 14.2807 72.8288 13.9089C72.1032 13.5279 71.5816 13.0789 71.2641 12.5619C70.9468 12.045 70.7878 11.419 70.7878 10.6844C70.7878 9.76829 71.0283 8.97008 71.5089 8.28981C71.9899 7.60955 72.6609 7.08799 73.5228 6.7252C74.3843 6.35331 75.4003 6.16738 76.5703 6.16738C77.7132 6.16738 78.7245 6.34424 79.6043 6.69798C80.4931 7.05173 81.2098 7.55513 81.7536 8.20819C82.2981 8.86123 82.6341 9.62766 82.7606 10.5075L79.4138 11.1062C79.3321 10.4803 79.0465 9.98596 78.5567 9.62315C78.0758 9.26033 77.4319 9.05626 76.6248 9.0109C75.8536 8.96554 75.2323 9.08346 74.7608 9.36465C74.2892 9.63678 74.0532 10.0223 74.0532 10.5211C74.0532 10.8023 74.1485 11.0427 74.339 11.2422C74.5294 11.4417 74.9103 11.6412 75.4819 11.8408C76.0623 12.0404 76.9241 12.2853 78.067 12.5755C79.237 12.8748 80.1711 13.2195 80.8697 13.6096C81.577 13.9905 82.0846 14.4485 82.3934 14.9837C82.7105 15.5188 82.8698 16.1674 82.8698 16.9292C82.8698 18.4077 82.3302 19.5687 81.2509 20.4122C80.1803 21.2558 78.6972 21.6776 76.8016 21.6776Z" fill="#1E1D1E"/>
<path d="M122.834 21.6776C121.02 21.6776 119.546 21.2694 118.412 20.453C117.279 19.6367 116.589 18.4893 116.344 17.0109L119.691 16.4939C119.863 17.2195 120.244 17.791 120.834 18.2081C121.424 18.6254 122.167 18.834 123.065 18.834C123.854 18.834 124.462 18.6798 124.889 18.3714C125.324 18.054 125.541 17.6231 125.541 17.0789C125.541 16.7433 125.46 16.4757 125.297 16.2762C125.142 16.0676 124.798 15.868 124.262 15.6776C123.727 15.4871 122.906 15.2467 121.8 14.9565C120.566 14.6299 119.587 14.2807 118.861 13.9089C118.136 13.5279 117.614 13.0789 117.297 12.5619C116.979 12.045 116.82 11.419 116.82 10.6844C116.82 9.76829 117.061 8.97008 117.541 8.28981C118.022 7.60955 118.693 7.08799 119.555 6.7252C120.417 6.35331 121.433 6.16738 122.603 6.16738C123.746 6.16738 124.757 6.34424 125.637 6.69798C126.526 7.05173 127.242 7.55513 127.786 8.20819C128.331 8.86123 128.667 9.62766 128.793 10.5075L125.446 11.1062C125.365 10.4803 125.079 9.98596 124.589 9.62315C124.108 9.26033 123.464 9.05626 122.657 9.0109C121.886 8.96554 121.265 9.08346 120.793 9.36465C120.322 9.63678 120.086 10.0223 120.086 10.5211C120.086 10.8023 120.181 11.0427 120.371 11.2422C120.562 11.4417 120.943 11.6412 121.514 11.8408C122.095 12.0404 122.957 12.2853 124.099 12.5755C125.269 12.8748 126.204 13.2195 126.902 13.6096C127.609 13.9905 128.117 14.4485 128.426 14.9837C128.743 15.5188 128.902 16.1674 128.902 16.9292C128.902 18.4077 128.363 19.5687 127.283 20.4122C126.213 21.2558 124.73 21.6776 122.834 21.6776Z" fill="#1E1D1E"/>
<path d="M92.8293 21.2694C91.8592 21.4508 90.9064 21.5279 89.9725 21.5007C89.0468 21.4825 88.2171 21.3147 87.4828 20.9973C86.7477 20.6707 86.1899 20.1583 85.8088 19.4598C85.4737 18.825 85.2963 18.1764 85.2782 17.5143C85.2601 16.8522 85.2511 16.1039 85.2511 15.2694V2.49395H88.5161V15.0789C88.5161 15.6685 88.5211 16.1855 88.5301 16.63C88.5482 17.0744 88.6434 17.4372 88.8159 17.7184C89.142 18.2627 89.6636 18.5665 90.3807 18.63C91.097 18.6935 91.9134 18.6572 92.8293 18.5211V21.2694ZM82.5848 9.14698V6.57557H92.8293V9.14698H82.5848Z" fill="#1E1D1E"/>
<path d="M100.293 21.6776C98.805 21.6776 97.4989 21.3555 96.3744 20.7115C95.2499 20.0675 94.3694 19.1741 93.7345 18.0313C93.1086 16.8884 92.7964 15.5733 92.7964 14.0857C92.7964 12.4803 93.1045 11.0879 93.7213 9.90883C94.3382 8.72066 95.1949 7.80001 96.2923 7.14695C97.3897 6.49391 98.6604 6.16738 100.102 6.16738C101.626 6.16738 102.919 6.52564 103.98 7.24219C105.05 7.94968 105.844 8.95195 106.361 10.249C106.878 11.546 107.072 13.0744 106.946 14.834H103.694V13.6367C103.685 12.0404 103.404 10.8749 102.85 10.1401C102.298 9.40547 101.427 9.0381 100.238 9.0381C98.8961 9.0381 97.8981 9.45533 97.2451 10.2898C96.5921 11.1152 96.2652 12.3261 96.2652 13.9224C96.2652 15.41 96.5921 16.5619 97.2451 17.3782C97.8981 18.1945 98.8501 18.6027 100.102 18.6027C100.909 18.6027 101.603 18.4258 102.184 18.0721C102.773 17.7093 103.227 17.1877 103.544 16.5074L106.782 17.487C106.22 18.8113 105.349 19.8408 104.17 20.5755C103 21.3102 101.708 21.6776 100.293 21.6776ZM95.2311 14.834V12.3578H105.34V14.834H95.2311Z" fill="#1E1D1E"/>
<path d="M108.349 21.2693V6.57544H111.247V10.1537L110.893 9.69109C111.074 9.20128 111.315 8.75684 111.614 8.35774C111.923 7.94959 112.29 7.61399 112.716 7.35095C113.079 7.10607 113.478 6.91558 113.914 6.77953C114.358 6.63439 114.812 6.54824 115.274 6.52102C115.736 6.48473 116.186 6.50289 116.621 6.57544V9.63663C116.186 9.50964 115.682 9.46882 115.111 9.51424C114.549 9.55958 114.04 9.71828 113.587 9.9904C113.133 10.2353 112.761 10.5482 112.471 10.9292C112.19 11.3101 111.982 11.7455 111.845 12.2353C111.709 12.716 111.641 13.2376 111.641 13.7999V21.2693H108.349Z" fill="#1E1D1E"/>
</svg>
