<svg width="30" height="30" viewBox="0 0 30 30" fill="none" xmlns="http://www.w3.org/2000/svg">
<path d="M6.00983 9.33022C5.59697 6.76784 7.51427 4.46617 10.4432 3.62291C10.9629 3.47417 11.5233 3.51727 12.0106 3.74346C12.4979 3.96965 12.8757 4.362 13.0673 4.84096L14.0076 7.20373C14.1589 7.58384 14.1863 7.9979 14.0862 8.39277C13.986 8.78763 13.763 9.1453 13.4456 9.41985L10.6485 11.8335C10.5105 11.9526 10.4076 12.1035 10.35 12.2713C10.2924 12.4391 10.2821 12.6182 10.32 12.7909L10.3459 12.8968L10.4129 13.1616C10.7616 14.4479 11.2916 15.6844 11.9887 16.8381C12.7498 18.0631 13.6932 19.1791 14.7901 20.1521L14.8765 20.2255C15.0162 20.3423 15.1855 20.423 15.3681 20.4597C15.5507 20.4965 15.7403 20.4881 15.9184 20.4353L19.5347 19.3618C19.9457 19.2402 20.3858 19.2371 20.7987 19.3529C21.2115 19.4687 21.5783 19.698 21.8519 20.0116L23.5638 21.969C24.2771 22.7838 24.1907 23.9815 23.3714 24.7005C21.1299 26.6701 18.0475 27.0734 15.9033 25.45C13.2738 23.4533 11.0578 21.0164 9.36672 18.2619C7.65908 15.511 6.5215 12.4805 6.00983 9.33022ZM12.5853 12.9253L14.9025 10.921C15.5376 10.3722 15.9842 9.65694 16.1848 8.86719C16.3855 8.07744 16.3311 7.2492 16.0286 6.48879L15.0905 4.12601C14.7057 3.16211 13.9459 2.37239 12.9655 1.91727C11.985 1.46216 10.8576 1.37577 9.812 1.67566C6.17411 2.72464 3.25385 5.79829 3.87205 9.63779C4.30436 12.3183 5.30084 15.728 7.49914 19.2885C9.32374 22.2585 11.7141 24.8859 14.5501 27.0388C17.7665 29.4729 22.0594 28.6418 24.8478 26.1935C25.6456 25.4935 26.1299 24.5329 26.2018 23.5079C26.2737 22.4828 25.9278 21.4706 25.2347 20.6776L23.5227 18.7182C22.9751 18.0918 22.2414 17.6338 21.4157 17.403C20.59 17.1722 19.7099 17.1791 18.8884 17.4227L15.886 18.3128C15.1107 17.5597 14.4317 16.7237 13.8628 15.8217C13.3138 14.9097 12.8855 13.9376 12.5874 12.9273" fill="#1E1D1E"/>
</svg>
