<svg width="102" height="31" viewBox="0 0 102 31" fill="none" xmlns="http://www.w3.org/2000/svg">
<path d="M53.8042 30.1311H51.2867V11.5889H53.8042L60.334 27.1818L66.8638 11.5889H69.4337V30.1311H66.9162V22.7963C66.9162 21.9243 66.9162 21.1806 66.9162 20.5651C66.9162 19.9495 66.925 19.4195 66.9424 18.975C66.9599 18.5305 66.9774 18.1372 66.9949 17.7953C67.0124 17.4362 67.0386 17.0943 67.0736 16.7694L61.5403 30.1311H59.1277L53.6207 16.8207C53.6906 17.2652 53.7343 17.9491 53.7518 18.8724C53.7868 19.7957 53.8042 20.907 53.8042 22.2064V30.1311Z" fill="#F2F2F2"/>
<path d="M33.623 23.3857V11.4346H36.1929V23.2318C36.1929 24.7193 36.595 25.8649 37.3992 26.6684C38.2209 27.4549 39.3835 27.8482 40.887 27.8482C42.373 27.8482 43.5182 27.4464 44.3224 26.6428C45.1266 25.8392 45.5287 24.7022 45.5287 23.2318V11.4346H48.1248V23.3857C48.1248 24.8048 47.8276 26.0273 47.2332 27.0531C46.6563 28.079 45.8259 28.874 44.7419 29.4382C43.658 30.0025 42.373 30.2846 40.887 30.2846C39.401 30.2846 38.1073 30.011 37.0059 29.4639C35.922 28.8997 35.0828 28.1046 34.4884 27.0788C33.9114 26.0358 33.623 24.8048 33.623 23.3857Z" fill="#F2F2F2"/>
<path d="M19.211 30.1311H16.6411V11.5889H23.8002C25.8282 11.5889 27.4103 12.0847 28.5467 13.0764C29.7006 14.0509 30.2775 15.4102 30.2775 17.1541C30.2775 18.4364 29.9541 19.5221 29.3072 20.4112C28.6778 21.3003 27.7775 21.9329 26.6061 22.309L30.4611 30.1311H27.6027L24.0624 22.7963H19.211V30.1311ZM19.211 13.8457V20.5651H23.8264C25.0152 20.5651 25.9331 20.2659 26.5799 19.6674C27.2443 19.069 27.5764 18.2398 27.5764 17.1798C27.5764 16.1026 27.2355 15.2819 26.5537 14.7177C25.8894 14.1364 24.9715 13.8457 23.8002 13.8457H19.211Z" fill="#F2F2F2"/>
<path d="M2.56995 11.5889V30.1311H0V11.5889H2.56995ZM7.36893 23.5144H1.99302V21.2575H6.81822C8.09446 21.2575 9.07348 20.9241 9.75531 20.2573C10.4371 19.5734 10.778 18.6587 10.778 17.5132C10.778 16.3505 10.4371 15.4529 9.75531 14.8203C9.07348 14.1706 8.12942 13.8457 6.92312 13.8457H1.41609V11.5889H7.36893C8.61019 11.5889 9.68538 11.8368 10.5945 12.3326C11.5036 12.8284 12.2116 13.5209 12.7186 14.41C13.2256 15.299 13.4791 16.342 13.4791 17.5388C13.4791 18.6843 13.2256 19.7102 12.7186 20.6163C12.2116 21.5225 11.5036 22.2321 10.5945 22.745C9.68538 23.2579 8.61019 23.5144 7.36893 23.5144Z" fill="#F2F2F2"/>
<path fill-rule="evenodd" clip-rule="evenodd" d="M100.578 7.01002C90.7392 12.4031 99.5938 23.4022 91.644 29.7427C93.3589 30.3677 96.6181 30.5555 98.5062 29.7427C105.637 25.3892 97.7644 13.2118 100.578 7.01002Z" fill="#F2F2F2"/>
<path fill-rule="evenodd" clip-rule="evenodd" d="M78.94 9.56925C75.4559 17.7765 85.2854 23.7297 90.6242 24.2617C89.8244 26.1297 88.4825 27.7693 86.8592 29.1622C81.9895 33.3406 69.3342 21.1769 78.94 9.56925Z" fill="#F2F2F2"/>
<path fill-rule="evenodd" clip-rule="evenodd" d="M99.8923 0.28418C91.644 7.01002 90.4149 14.118 91.644 20.4004C89.415 20.0009 87.1642 19.1734 85.1118 17.7765C78.854 13.524 84.2571 0.550409 99.8923 0.28418Z" fill="#F2F2F2"/>
</svg>
