<svg width="46" height="47" viewBox="0 0 46 47" fill="none" xmlns="http://www.w3.org/2000/svg">
<rect x="0.75" y="1.03418" width="44.5" height="44.5" rx="22.25" stroke="#A9A9A9" stroke-width="1.5"/>
<path d="M28.34 16.7442C28.1027 16.7442 27.8707 16.8146 27.6733 16.9464C27.476 17.0783 27.3222 17.2657 27.2313 17.485C27.1405 17.7042 27.1168 17.9455 27.1631 18.1783C27.2094 18.4111 27.3236 18.6249 27.4915 18.7927C27.6593 18.9605 27.8731 19.0748 28.1059 19.1211C28.3387 19.1674 28.5799 19.1437 28.7992 19.0528C29.0185 18.962 29.2059 18.8082 29.3378 18.6109C29.4696 18.4135 29.54 18.1815 29.54 17.9442C29.54 17.6259 29.4136 17.3207 29.1885 17.0957C28.9635 16.8706 28.6583 16.7442 28.34 16.7442ZM32.94 19.1642C32.9204 18.3345 32.765 17.5136 32.48 16.7342C32.2269 16.0667 31.831 15.4626 31.32 14.9642C30.8248 14.4516 30.2196 14.0584 29.55 13.8142C28.7727 13.5203 27.9508 13.3614 27.12 13.3442C26.06 13.2842 25.72 13.2842 23 13.2842C20.28 13.2842 19.94 13.2842 18.88 13.3442C18.0492 13.3614 17.2273 13.5203 16.45 13.8142C15.782 14.0614 15.1774 14.4543 14.68 14.9642C14.1674 15.4594 13.7742 16.0646 13.53 16.7342C13.2362 17.5115 13.0772 18.3333 13.06 19.1642C13 20.2242 13 20.5642 13 23.2842C13 26.0042 13 26.3442 13.06 27.4042C13.0772 28.235 13.2362 29.0568 13.53 29.8342C13.7742 30.5037 14.1674 31.109 14.68 31.6042C15.1774 32.1141 15.782 32.5069 16.45 32.7542C17.2273 33.048 18.0492 33.207 18.88 33.2242C19.94 33.2842 20.28 33.2842 23 33.2842C25.72 33.2842 26.06 33.2842 27.12 33.2242C27.9508 33.207 28.7727 33.048 29.55 32.7542C30.2196 32.51 30.8248 32.1168 31.32 31.6042C31.8322 31.1068 32.2283 30.5024 32.48 29.8342C32.765 29.0547 32.9204 28.2339 32.94 27.4042C32.94 26.3442 33 26.0042 33 23.2842C33 20.5642 33 20.2242 32.94 19.1642ZM31.14 27.2842C31.1329 27.919 31.0179 28.5479 30.8 29.1442C30.6403 29.5794 30.3839 29.9726 30.05 30.2942C29.7254 30.6244 29.3331 30.8803 28.9 31.0442C28.3038 31.2621 27.6748 31.3771 27.04 31.3842C26.04 31.4342 25.67 31.4442 23.04 31.4442C20.41 31.4442 20.04 31.4442 19.04 31.3842C18.3808 31.3971 17.7245 31.2956 17.1 31.0842C16.6862 30.9115 16.3119 30.6563 16 30.3342C15.6681 30.0129 15.4148 29.6194 15.26 29.1842C15.015 28.5796 14.8796 27.9362 14.86 27.2842C14.86 26.2842 14.8 25.9142 14.8 23.2842C14.8 20.6542 14.8 20.2842 14.86 19.2842C14.8636 18.6352 14.9821 17.9919 15.21 17.3842C15.386 16.9621 15.6563 16.5858 16 16.2842C16.3029 15.9394 16.6786 15.6661 17.1 15.4842C17.7094 15.2637 18.3519 15.1487 19 15.1442C20 15.1442 20.37 15.0842 23 15.0842C25.63 15.0842 26 15.0842 27 15.1442C27.6348 15.1513 28.2638 15.2662 28.86 15.4842C29.3144 15.6528 29.7223 15.927 30.05 16.2842C30.3767 16.5922 30.6326 16.9675 30.8 17.3842C31.0224 17.9931 31.1375 18.6359 31.14 19.2842C31.19 20.2842 31.2 20.6542 31.2 23.2842C31.2 25.9142 31.19 26.2842 31.14 27.2842ZM23 18.1542C21.9858 18.1562 20.995 18.4587 20.1527 19.0236C19.3103 19.5885 18.6544 20.3904 18.2676 21.3279C17.8809 22.2655 17.7807 23.2966 17.9798 24.2911C18.1789 25.2856 18.6682 26.1987 19.3861 26.9152C20.1039 27.6316 21.018 28.1192 22.0129 28.3163C23.0077 28.5135 24.0387 28.4113 24.9755 28.0227C25.9123 27.6341 26.7129 26.9766 27.2761 26.1332C27.8394 25.2898 28.14 24.2984 28.14 23.2842C28.1413 22.6093 28.0092 21.9408 27.7512 21.3171C27.4933 20.6935 27.1146 20.127 26.6369 19.6502C26.1592 19.1735 25.5919 18.7959 24.9678 18.5391C24.3436 18.2824 23.6749 18.1515 23 18.1542ZM23 26.6142C22.3414 26.6142 21.6976 26.4189 21.15 26.053C20.6023 25.6871 20.1755 25.167 19.9235 24.5585C19.6714 23.95 19.6055 23.2805 19.734 22.6345C19.8625 21.9886 20.1796 21.3952 20.6453 20.9295C21.111 20.4638 21.7044 20.1467 22.3503 20.0182C22.9963 19.8897 23.6659 19.9556 24.2743 20.2077C24.8828 20.4597 25.4029 20.8865 25.7688 21.4341C26.1347 21.9817 26.33 22.6256 26.33 23.2842C26.33 23.7215 26.2439 24.1545 26.0765 24.5585C25.9092 24.9625 25.6639 25.3296 25.3547 25.6388C25.0454 25.9481 24.6784 26.1934 24.2743 26.3607C23.8703 26.528 23.4373 26.6142 23 26.6142Z" fill="#A9A9A9"/>
</svg>
