<svg width="46" height="47" viewBox="0 0 46 47" fill="none" xmlns="http://www.w3.org/2000/svg">
<rect x="0.75" y="1.03418" width="44.5" height="44.5" rx="22.25" stroke="#A9A9A9" stroke-width="1.5"/>
<path fill-rule="evenodd" clip-rule="evenodd" d="M16 12.5342C15.2707 12.5342 14.5712 12.8239 14.0555 13.3396C13.5397 13.8554 13.25 14.5548 13.25 15.2842C13.25 16.0135 13.5397 16.713 14.0555 17.2287C14.5712 17.7444 15.2707 18.0342 16 18.0342C16.7293 18.0342 17.4288 17.7444 17.9445 17.2287C18.4603 16.713 18.75 16.0135 18.75 15.2842C18.75 14.5548 18.4603 13.8554 17.9445 13.3396C17.4288 12.8239 16.7293 12.5342 16 12.5342ZM14.75 15.2842C14.75 14.9527 14.8817 14.6347 15.1161 14.4003C15.3505 14.1659 15.6685 14.0342 16 14.0342C16.3315 14.0342 16.6495 14.1659 16.8839 14.4003C17.1183 14.6347 17.25 14.9527 17.25 15.2842C17.25 15.6157 17.1183 15.9336 16.8839 16.1681C16.6495 16.4025 16.3315 16.5342 16 16.5342C15.6685 16.5342 15.3505 16.4025 15.1161 16.1681C14.8817 15.9336 14.75 15.6157 14.75 15.2842ZM13.25 19.2842C13.25 19.0853 13.329 18.8945 13.4697 18.7538C13.6103 18.6132 13.8011 18.5342 14 18.5342H18C18.1989 18.5342 18.3897 18.6132 18.5303 18.7538C18.671 18.8945 18.75 19.0853 18.75 19.2842V32.2842C18.75 32.4831 18.671 32.6739 18.5303 32.8145C18.3897 32.9552 18.1989 33.0342 18 33.0342H14C13.8011 33.0342 13.6103 32.9552 13.4697 32.8145C13.329 32.6739 13.25 32.4831 13.25 32.2842V19.2842ZM14.75 20.0342V31.5342H17.25V20.0342H14.75ZM20.25 19.2842C20.25 19.0853 20.329 18.8945 20.4697 18.7538C20.6103 18.6132 20.8011 18.5342 21 18.5342H25C25.1989 18.5342 25.3897 18.6132 25.5303 18.7538C25.671 18.8945 25.75 19.0853 25.75 19.2842V19.7182L26.185 19.5312C26.9351 19.2108 27.7307 19.01 28.543 18.9362C31.318 18.6842 33.75 20.8642 33.75 23.6642V32.2842C33.75 32.4831 33.671 32.6739 33.5303 32.8145C33.3897 32.9552 33.1989 33.0342 33 33.0342H29C28.8011 33.0342 28.6103 32.9552 28.4697 32.8145C28.329 32.6739 28.25 32.4831 28.25 32.2842V25.2842C28.25 24.9527 28.1183 24.6347 27.8839 24.4003C27.6495 24.1659 27.3315 24.0342 27 24.0342C26.6685 24.0342 26.3505 24.1659 26.1161 24.4003C25.8817 24.6347 25.75 24.9527 25.75 25.2842V32.2842C25.75 32.4831 25.671 32.6739 25.5303 32.8145C25.3897 32.9552 25.1989 33.0342 25 33.0342H21C20.8011 33.0342 20.6103 32.9552 20.4697 32.8145C20.329 32.6739 20.25 32.4831 20.25 32.2842V19.2842ZM21.75 20.0342V31.5342H24.25V25.2842C24.25 24.5548 24.5397 23.8554 25.0555 23.3396C25.5712 22.8239 26.2707 22.5342 27 22.5342C27.7293 22.5342 28.4288 22.8239 28.9445 23.3396C29.4603 23.8554 29.75 24.5548 29.75 25.2842V31.5342H32.25V23.6642C32.25 21.7602 30.589 20.2562 28.68 20.4302C28.0241 20.4897 27.3817 20.6516 26.776 20.9102L25.296 21.5452C25.1818 21.5942 25.0573 21.6141 24.9336 21.6031C24.8098 21.5921 24.6907 21.5505 24.587 21.4821C24.4833 21.4137 24.3982 21.3206 24.3394 21.2112C24.2806 21.1017 24.2499 20.9794 24.25 20.8552V20.0342H21.75Z" fill="#A9A9A9"/>
</svg>
