<svg width="30" height="30" viewBox="0 0 30 30" fill="none" xmlns="http://www.w3.org/2000/svg">
<path d="M11.625 10.95C11.625 10.0549 11.9806 9.19645 12.6136 8.56351C13.2465 7.93058 14.1049 7.575 15 7.575C16.485 7.575 17.7405 8.5335 18.1995 9.8565C18.3075 10.2075 18.375 10.572 18.375 10.95C18.375 11.3932 18.2877 11.8321 18.1181 12.2416C17.9485 12.651 17.6999 13.0231 17.3865 13.3365C17.0731 13.6499 16.7011 13.8985 16.2916 14.0681C15.8821 14.2377 15.4433 14.325 15 14.325C13.5285 14.325 12.3 13.3935 11.814 12.084C11.6925 11.733 11.625 11.3415 11.625 10.95ZM15 1.5C20.211 1.5 24.45 5.7255 24.45 10.95C24.45 18.0375 15 28.5 15 28.5C15 28.5 5.55005 18.0375 5.55005 10.95C5.55005 5.7255 9.78905 1.5 15 1.5ZM15 4.2C11.274 4.2 8.25005 7.224 8.25005 10.95C8.25005 12.3 8.25005 15 15 24.0585C21.75 15 21.75 12.3 21.75 10.95C21.75 7.224 18.726 4.2 15 4.2Z" fill="#1E1D1E"/>
</svg>
