<svg width="30" height="30" viewBox="0 0 30 30" fill="none" xmlns="http://www.w3.org/2000/svg">
<path d="M4.07153 8.36188L15.0001 15.6476L25.9287 8.36188M4.07153 8.92857C4.07153 8.28447 4.3274 7.66676 4.78285 7.21131C5.23829 6.75587 5.85601 6.5 6.5001 6.5H23.5001C24.1442 6.5 24.7619 6.75587 25.2174 7.21131C25.6728 7.66676 25.9287 8.28447 25.9287 8.92857V21.0714C25.9287 21.7155 25.6728 22.3332 25.2174 22.7887C24.7619 23.2441 24.1442 23.5 23.5001 23.5H6.5001C5.85601 23.5 5.23829 23.2441 4.78285 22.7887C4.3274 22.3332 4.07153 21.7155 4.07153 21.0714V8.92857Z" stroke="#1E1D1E" stroke-width="2.5" stroke-linecap="round" stroke-linejoin="round"/>
</svg>
