<svg width="102" height="30" viewBox="0 0 102 30" fill="none" xmlns="http://www.w3.org/2000/svg">
<path d="M53.8042 29.8461H51.2867V11.3039H53.8042L60.334 26.8968L66.8638 11.3039H69.4337V29.8461H66.9162V22.5113C66.9162 21.6393 66.9162 20.8956 66.9162 20.2801C66.9162 19.6646 66.925 19.1346 66.9424 18.69C66.9599 18.2455 66.9774 17.8522 66.9949 17.5103C67.0124 17.1512 67.0386 16.8093 67.0736 16.4844L61.5403 29.8461H59.1277L53.6207 16.5357C53.6906 16.9803 53.7343 17.6642 53.7518 18.5874C53.7868 19.5107 53.8042 20.622 53.8042 21.9214V29.8461Z" fill="#1E1D1E"/>
<path d="M33.623 23.1012V11.15H36.1929V22.9473C36.1929 24.4348 36.595 25.5803 37.3992 26.3839C38.2209 27.1704 39.3835 27.5636 40.887 27.5636C42.373 27.5636 43.5182 27.1618 44.3224 26.3583C45.1266 25.5547 45.5287 24.4177 45.5287 22.9473V11.15H48.1248V23.1012C48.1248 24.5203 47.8276 25.7427 47.2332 26.7686C46.6563 27.7944 45.8259 28.5895 44.7419 29.1537C43.658 29.7179 42.373 30 40.887 30C39.401 30 38.1073 29.7265 37.0059 29.1793C35.922 28.6151 35.0828 27.8201 34.4884 26.7942C33.9114 25.7513 33.623 24.5203 33.623 23.1012Z" fill="#1E1D1E"/>
<path d="M19.211 29.8461H16.6411V11.3039H23.8002C25.8282 11.3039 27.4103 11.7997 28.5467 12.7914C29.7006 13.7659 30.2775 15.1252 30.2775 16.8691C30.2775 18.1514 29.9541 19.2371 29.3072 20.1262C28.6778 21.0153 27.7775 21.6479 26.6061 22.024L30.4611 29.8461H27.6027L24.0624 22.5113H19.211V29.8461ZM19.211 13.5608V20.2801H23.8264C25.0152 20.2801 25.9331 19.9809 26.5799 19.3825C27.2443 18.7841 27.5764 17.9548 27.5764 16.8948C27.5764 15.8176 27.2355 14.997 26.5537 14.4327C25.8894 13.8514 24.9715 13.5608 23.8002 13.5608H19.211Z" fill="#1E1D1E"/>
<path d="M2.56995 11.3039V29.8461H0V11.3039H2.56995ZM7.36893 23.2294H1.99302V20.9725H6.81822C8.09446 20.9725 9.07348 20.6391 9.75531 19.9723C10.4371 19.2884 10.778 18.3737 10.778 17.2282C10.778 16.0655 10.4371 15.1679 9.75531 14.5353C9.07348 13.8856 8.12942 13.5608 6.92312 13.5608H1.41609V11.3039H7.36893C8.61019 11.3039 9.68538 11.5518 10.5945 12.0476C11.5036 12.5435 12.2116 13.2359 12.7186 14.125C13.2256 15.0141 13.4791 16.057 13.4791 17.2538C13.4791 18.3994 13.2256 19.4252 12.7186 20.3314C12.2116 21.2375 11.5036 21.9471 10.5945 22.46C9.68538 22.9729 8.61019 23.2294 7.36893 23.2294Z" fill="#1E1D1E"/>
<path fill-rule="evenodd" clip-rule="evenodd" d="M100.578 6.72584C90.7392 12.1189 99.5938 23.1181 91.644 29.4586C93.3589 30.0835 96.6181 30.2714 98.5062 29.4586C105.637 25.105 97.7644 12.9277 100.578 6.72584Z" fill="black"/>
<path fill-rule="evenodd" clip-rule="evenodd" d="M78.94 9.28507C75.4559 17.4923 85.2854 23.4455 90.6242 23.9775C89.8244 25.8456 88.4825 27.4852 86.8592 28.878C81.9895 33.0565 69.3342 20.8927 78.94 9.28507Z" fill="black"/>
<path fill-rule="evenodd" clip-rule="evenodd" d="M99.8923 0C91.644 6.72584 90.4149 13.8338 91.644 20.1163C89.415 19.7167 87.1642 18.8892 85.1118 17.4923C78.854 13.2398 84.2571 0.266229 99.8923 0Z" fill="black"/>
</svg>
