<svg width="32" height="32" viewBox="0 0 32 32" fill="none" xmlns="http://www.w3.org/2000/svg">
<rect x="0.5" y="0.5" width="31" height="31" rx="15.5" stroke="#333333"/>
<path d="M20.4503 10.55C20.2525 10.55 20.0592 10.6087 19.8948 10.7186C19.7303 10.8284 19.6021 10.9846 19.5264 11.1673C19.4508 11.3501 19.431 11.5511 19.4695 11.7451C19.5081 11.9391 19.6034 12.1173 19.7432 12.2571C19.8831 12.397 20.0613 12.4922 20.2552 12.5308C20.4492 12.5694 20.6503 12.5496 20.833 12.4739C21.0157 12.3982 21.1719 12.27 21.2818 12.1056C21.3917 11.9411 21.4503 11.7478 21.4503 11.55C21.4503 11.2848 21.345 11.0304 21.1574 10.8429C20.9699 10.6554 20.7155 10.55 20.4503 10.55ZM24.2837 12.5667C24.2673 11.8753 24.1378 11.1912 23.9003 10.5417C23.6894 9.98548 23.3595 9.48207 22.9337 9.06669C22.521 8.63954 22.0166 8.31183 21.4587 8.10835C20.8109 7.86349 20.126 7.73103 19.4337 7.71669C18.5503 7.66669 18.267 7.66669 16.0003 7.66669C13.7337 7.66669 13.4503 7.66669 12.567 7.71669C11.8746 7.73103 11.1898 7.86349 10.542 8.10835C9.98531 8.3144 9.48146 8.64176 9.06699 9.06669C8.63985 9.47934 8.31214 9.98372 8.10866 10.5417C7.86379 11.1895 7.73133 11.8743 7.71699 12.5667C7.66699 13.45 7.66699 13.7334 7.66699 16C7.66699 18.2667 7.66699 18.55 7.71699 19.4334C7.73133 20.1257 7.86379 20.8106 8.10866 21.4584C8.31214 22.0163 8.63985 22.5207 9.06699 22.9334C9.48146 23.3583 9.98531 23.6856 10.542 23.8917C11.1898 24.1366 11.8746 24.269 12.567 24.2834C13.4503 24.3334 13.7337 24.3334 16.0003 24.3334C18.267 24.3334 18.5503 24.3334 19.4337 24.2834C20.126 24.269 20.8109 24.1366 21.4587 23.8917C22.0166 23.6882 22.521 23.3605 22.9337 22.9334C23.3605 22.5188 23.6906 22.0152 23.9003 21.4584C24.1378 20.8088 24.2673 20.1248 24.2837 19.4334C24.2837 18.55 24.3337 18.2667 24.3337 16C24.3337 13.7334 24.3337 13.45 24.2837 12.5667ZM22.7837 19.3334C22.7778 19.8623 22.6819 20.3865 22.5003 20.8834C22.3673 21.246 22.1536 21.5737 21.8753 21.8417C21.6049 22.1169 21.2779 22.3301 20.917 22.4667C20.4201 22.6483 19.896 22.7441 19.367 22.75C18.5337 22.7917 18.2253 22.8 16.0337 22.8C13.842 22.8 13.5337 22.8 12.7003 22.75C12.151 22.7608 11.604 22.6762 11.0837 22.5C10.7388 22.3561 10.4269 22.1435 10.167 21.875C9.8904 21.6073 9.67936 21.2793 9.55033 20.9167C9.3462 20.4129 9.23333 19.8767 9.21699 19.3334C9.21699 18.5 9.16699 18.1917 9.16699 16C9.16699 13.8084 9.16699 13.5 9.21699 12.6667C9.22003 12.1258 9.31878 11.5898 9.50866 11.0834C9.65536 10.7316 9.88055 10.4181 10.167 10.1667C10.4194 9.87935 10.7325 9.65164 11.0837 9.50002C11.5915 9.31625 12.1269 9.22043 12.667 9.21669C13.5003 9.21669 13.8087 9.16669 16.0003 9.16669C18.192 9.16669 18.5003 9.16669 19.3337 9.21669C19.8626 9.22259 20.3868 9.3184 20.8837 9.50002C21.2624 9.64056 21.6022 9.86906 21.8753 10.1667C22.1476 10.4234 22.3608 10.7361 22.5003 11.0834C22.6857 11.5908 22.7816 12.1265 22.7837 12.6667C22.8253 13.5 22.8337 13.8084 22.8337 16C22.8337 18.1917 22.8253 18.5 22.7837 19.3334ZM16.0003 11.725C15.1552 11.7267 14.3295 11.9788 13.6275 12.4495C12.9256 12.9203 12.379 13.5885 12.0567 14.3698C11.7344 15.1511 11.6509 16.0104 11.8168 16.8391C11.9827 17.6678 12.3905 18.4288 12.9887 19.0258C13.5869 19.6229 14.3487 20.0292 15.1777 20.1935C16.0067 20.3578 16.8659 20.2726 17.6465 19.9488C18.4272 19.625 19.0944 19.0771 19.5638 18.3742C20.0331 17.6714 20.2837 16.8452 20.2837 16C20.2848 15.4376 20.1747 14.8805 19.9597 14.3608C19.7447 13.8411 19.4291 13.369 19.031 12.9717C18.633 12.5744 18.1603 12.2598 17.6402 12.0458C17.12 11.8318 16.5627 11.7228 16.0003 11.725ZM16.0003 18.775C15.4515 18.775 14.915 18.6123 14.4586 18.3073C14.0023 18.0024 13.6466 17.569 13.4366 17.062C13.2265 16.5549 13.1716 15.9969 13.2786 15.4586C13.3857 14.9203 13.65 14.4259 14.0381 14.0378C14.4262 13.6497 14.9207 13.3854 15.459 13.2783C15.9972 13.1713 16.5552 13.2262 17.0623 13.4363C17.5693 13.6463 18.0027 14.002 18.3077 14.4583C18.6126 14.9147 18.7753 15.4512 18.7753 16C18.7753 16.3644 18.7035 16.7253 18.5641 17.062C18.4246 17.3986 18.2202 17.7046 17.9625 17.9622C17.7049 18.2199 17.399 18.4243 17.0623 18.5638C16.7256 18.7032 16.3647 18.775 16.0003 18.775Z" fill="#333333"/>
</svg>
