<svg width="32" height="32" viewBox="0 0 32 32" fill="none" xmlns="http://www.w3.org/2000/svg">
<rect x="0.5" y="0.5" width="31" height="31" rx="15.5" stroke="#333333"/>
<path fill-rule="evenodd" clip-rule="evenodd" d="M10.1667 7.04169C9.55888 7.04169 8.97598 7.28313 8.54621 7.7129C8.11644 8.14267 7.875 8.72557 7.875 9.33335C7.875 9.94114 8.11644 10.524 8.54621 10.9538C8.97598 11.3836 9.55888 11.625 10.1667 11.625C10.7745 11.625 11.3573 11.3836 11.7871 10.9538C12.2169 10.524 12.4583 9.94114 12.4583 9.33335C12.4583 8.72557 12.2169 8.14267 11.7871 7.7129C11.3573 7.28313 10.7745 7.04169 10.1667 7.04169ZM9.125 9.33335C9.125 9.05709 9.23475 8.79213 9.4301 8.59678C9.62545 8.40143 9.8904 8.29169 10.1667 8.29169C10.4429 8.29169 10.7079 8.40143 10.9032 8.59678C11.0986 8.79213 11.2083 9.05709 11.2083 9.33335C11.2083 9.60962 11.0986 9.87457 10.9032 10.0699C10.7079 10.2653 10.4429 10.375 10.1667 10.375C9.8904 10.375 9.62545 10.2653 9.4301 10.0699C9.23475 9.87457 9.125 9.60962 9.125 9.33335ZM7.875 12.6667C7.875 12.5009 7.94085 12.342 8.05806 12.2247C8.17527 12.1075 8.33424 12.0417 8.5 12.0417H11.8333C11.9991 12.0417 12.1581 12.1075 12.2753 12.2247C12.3925 12.342 12.4583 12.5009 12.4583 12.6667V23.5C12.4583 23.6658 12.3925 23.8248 12.2753 23.942C12.1581 24.0592 11.9991 24.125 11.8333 24.125H8.5C8.33424 24.125 8.17527 24.0592 8.05806 23.942C7.94085 23.8248 7.875 23.6658 7.875 23.5V12.6667ZM9.125 13.2917V22.875H11.2083V13.2917H9.125ZM13.7083 12.6667C13.7083 12.5009 13.7742 12.342 13.8914 12.2247C14.0086 12.1075 14.1676 12.0417 14.3333 12.0417H17.6667C17.8324 12.0417 17.9914 12.1075 18.1086 12.2247C18.2258 12.342 18.2917 12.5009 18.2917 12.6667V13.0284L18.6542 12.8725C19.2792 12.6055 19.9423 12.4382 20.6192 12.3767C22.9317 12.1667 24.9583 13.9834 24.9583 16.3167V23.5C24.9583 23.6658 24.8925 23.8248 24.7753 23.942C24.6581 24.0592 24.4991 24.125 24.3333 24.125H21C20.8342 24.125 20.6753 24.0592 20.5581 23.942C20.4408 23.8248 20.375 23.6658 20.375 23.5V17.6667C20.375 17.3904 20.2653 17.1255 20.0699 16.9301C19.8746 16.7348 19.6096 16.625 19.3333 16.625C19.0571 16.625 18.7921 16.7348 18.5968 16.9301C18.4014 17.1255 18.2917 17.3904 18.2917 17.6667V23.5C18.2917 23.6658 18.2258 23.8248 18.1086 23.942C17.9914 24.0592 17.8324 24.125 17.6667 24.125H14.3333C14.1676 24.125 14.0086 24.0592 13.8914 23.942C13.7742 23.8248 13.7083 23.6658 13.7083 23.5V12.6667ZM14.9583 13.2917V22.875H17.0417V17.6667C17.0417 17.0589 17.2831 16.476 17.7129 16.0462C18.1427 15.6165 18.7255 15.375 19.3333 15.375C19.9411 15.375 20.524 15.6165 20.9538 16.0462C21.3836 16.476 21.625 17.0589 21.625 17.6667V22.875H23.7083V16.3167C23.7083 14.73 22.3242 13.4767 20.7333 13.6217C20.1868 13.6713 19.6514 13.8062 19.1467 14.0217L17.9133 14.5509C17.8182 14.5917 17.7144 14.6083 17.6113 14.5991C17.5082 14.59 17.4089 14.5553 17.3225 14.4983C17.2361 14.4413 17.1652 14.3637 17.1162 14.2725C17.0671 14.1813 17.0415 14.0794 17.0417 13.9759V13.2917H14.9583Z" fill="#333333"/>
</svg>
